<svg width="1440" height="1058" viewBox="0 0 1440 1058" fill="none" xmlns="http://www.w3.org/2000/svg">
<path d="M79 552C97 665.152 3.58826 1057.15 -28.9965 1057.15C-61.5813 1057.15 -81 751.057 -81 641.152C-81 531.247 -34.5823 665.152 -1.99747 665.152C30.5873 665.152 79 442.095 79 552Z" fill="#6DDCFE"/>
<path d="M79.4691 568C97.4691 689 -42.4902 808 -68.9999 808C-95.5095 808 -6.53094 663.545 -6.53094 568C-6.53094 472.455 -74.0408 278 -47.5311 278C-21.0215 278 79.4691 472.455 79.4691 568Z" fill="#1194FF"/>
<ellipse cx="1446" cy="471.579" rx="102" ry="228" fill="#1194FF"/>
<path d="M1516 356.579C1516 496.307 1481.08 609.579 1438 609.579C1394.92 609.579 1318 193.307 1318 53.5787C1318 -86.1493 1406.92 91.5785 1450 91.5785C1493.08 91.5785 1516 216.851 1516 356.579Z" fill="#6DDCFE"/>
</svg>
