<svg width="1440" height="1110" viewBox="0 0 1440 1110" fill="none" xmlns="http://www.w3.org/2000/svg">
<path d="M56 633.842C74 740.5 -19.4117 1110 -51.9965 1110C-84.5813 1110 -104 821.474 -104 717.877C-104 614.281 -57.5823 740.5 -24.9975 740.5C7.58733 740.5 56 530.246 56 633.842Z" fill="#6DDCFE"/>
<path d="M60.4017 614.576C78.4017 728.631 -61.5576 840.801 -88.0672 840.801C-114.577 840.801 -25.5983 704.637 -25.5983 614.576C-25.5983 524.515 -93.1082 341.222 -66.5985 341.222C-40.0888 341.222 60.4017 524.515 60.4017 614.576Z" fill="#1194FF"/>
<ellipse cx="1470" cy="554.25" rx="102" ry="324.255" fill="#1194FF"/>
<path d="M1540 336.344C1540 468.143 1505.25 574.987 1462.39 574.987C1419.53 574.987 1343 182.337 1343 50.5383C1343 -81.2606 1431.47 86.3818 1474.33 86.3818C1517.19 86.3818 1540 204.545 1540 336.344Z" fill="#6DDCFE"/>
</svg>
