<svg width="720" height="750" viewBox="0 0 720 750" fill="none" xmlns="http://www.w3.org/2000/svg">
<path d="M593.438 -73.4448C600.418 -31.1645 290.364 90.513 122.765 118.18C-44.8329 145.847 -6.50958 69.0262 -13.4892 26.746C-20.4687 -15.5343 109.739 -72.2377 277.337 -99.9046C444.935 -127.572 586.458 -115.725 593.438 -73.4448Z" fill="#1194FF"/>
<ellipse cx="636.732" cy="28.2111" rx="241.571" ry="84.3435" transform="rotate(11.6063 636.732 28.2111)" fill="#5AE9FE" fill-opacity="0.59"/>
<path d="M583.202 166.326C583.472 165.819 583.808 165.351 584.201 164.936L588.682 160.32C589.143 159.831 589.685 159.433 590.282 159.146C591.221 158.698 592.263 158.552 593.27 158.726C594.277 158.901 595.203 159.388 595.925 160.123C597.458 161.668 600.264 164.488 605.326 169.611C615.006 179.42 632.992 195.832 641.128 202.823C641.538 203.173 641.871 203.609 642.107 204.103C642.342 204.598 642.475 205.14 642.496 205.695C642.517 206.25 642.426 206.806 642.23 207.328C642.033 207.85 641.735 208.327 641.353 208.728L631.822 218.786C631.438 219.188 630.98 219.505 630.476 219.718C629.973 219.931 629.434 220.035 628.895 220.023C628.355 220.011 627.827 219.884 627.342 219.649C626.858 219.414 626.428 219.077 626.079 218.659C619.04 210.151 602.89 191.69 593.321 182.004C588.406 177.052 585.651 174.207 584.091 172.636C583.318 171.83 582.816 170.787 582.656 169.654C582.496 168.521 582.687 167.357 583.202 166.326V166.326Z" stroke="#02265C" stroke-width="7" stroke-linecap="round" stroke-linejoin="round"/>
<path d="M534.495 155.6L542.879 146.925C543.007 146.792 543.159 146.686 543.326 146.614C543.494 146.543 543.673 146.507 543.852 146.51C544.031 146.503 544.209 146.534 544.375 146.6C544.542 146.666 544.693 146.765 544.82 146.892C545.118 147.199 545.481 147.429 545.882 147.564C546.283 147.7 546.711 147.738 547.132 147.674C548.221 147.533 549.381 147.165 550.133 146.404C551.843 144.653 549.903 141.297 551.412 139.103C553.135 136.701 555.022 134.428 557.058 132.301C558.783 130.515 565.562 123.757 576.938 118.781C580.568 117.186 584.448 116.333 588.36 116.27C594.755 116.162 599.652 119.031 601.435 120.696C602.853 122.007 604.324 124.103 604.324 124.103C603.468 123.794 602.594 123.541 601.706 123.344C599.853 122.964 597.95 122.87 596.058 123.065C592.28 123.453 587.717 125.362 585.262 127.386C581.306 130.716 579.586 135.11 579.284 140.747C579.062 144.94 582.917 150.164 586.579 154.415C586.902 154.789 587.069 155.28 587.048 155.786C587.026 156.293 586.817 156.776 586.464 157.135L581.274 162.551C580.912 162.924 580.428 163.14 579.923 163.153C579.418 163.167 578.933 162.976 578.57 162.622C575.212 159.287 571.072 155.602 568.721 154.138C566.369 152.674 564.467 152.282 563.553 152.195C561.756 152.045 559.946 152.481 558.376 153.441C558.099 153.607 557.846 153.813 557.624 154.051C556.045 155.725 556.122 158.414 557.706 160.009L558.188 160.475C558.313 160.601 558.413 160.753 558.48 160.921C558.547 161.089 558.581 161.269 558.58 161.452C558.579 161.636 558.542 161.818 558.473 161.988C558.403 162.158 558.302 162.313 558.175 162.443L549.791 171.119C549.662 171.251 549.51 171.356 549.343 171.427C549.175 171.498 548.997 171.533 548.818 171.532C548.456 171.543 548.108 171.406 547.85 171.151L534.481 157.609C534.235 157.342 534.099 156.985 534.102 156.611C534.104 156.238 534.245 155.876 534.495 155.6Z" stroke="#02265C" stroke-width="7" stroke-linecap="round" stroke-linejoin="round"/>
<path d="M143.301 704.845C142.462 706.482 143.163 708.451 144.866 709.245L148.417 710.899C150.123 711.693 152.183 711.01 153.022 709.373C153.714 708.024 155.27 707.314 156.834 707.429C157.081 707.446 157.331 707.458 157.576 707.468C159.142 707.532 160.591 708.41 161.098 709.829C161.392 710.654 162.016 711.331 162.834 711.712C163.651 712.093 164.595 712.146 165.458 711.86L169.209 710.617C170.072 710.33 170.782 709.728 171.185 708.943C171.588 708.157 171.649 707.253 171.356 706.428V706.428C170.851 705.006 171.435 703.456 172.636 702.477C172.824 702.322 173.01 702.165 173.194 702.005C174.354 700.986 176.034 700.623 177.438 701.277C179.142 702.071 181.202 701.388 182.041 699.751L183.792 696.337C184.631 694.701 183.93 692.731 182.227 691.938C180.822 691.284 180.091 689.797 180.221 688.299C180.24 688.062 180.254 687.823 180.268 687.589C180.343 686.088 181.268 684.694 182.753 684.2C183.616 683.913 184.326 683.311 184.729 682.526C185.132 681.74 185.194 680.836 184.9 680.011L183.625 676.426C183.332 675.601 182.708 674.924 181.89 674.543C181.072 674.162 180.128 674.109 179.266 674.395C177.778 674.888 176.163 674.338 175.147 673.197C174.99 673.016 174.825 672.838 174.659 672.663C173.603 671.558 173.234 669.951 173.926 668.602C174.765 666.965 174.065 664.996 172.361 664.202L168.808 662.547C167.105 661.753 165.044 662.436 164.205 664.073C163.513 665.423 161.957 666.132 160.392 666.02C160.146 666 159.898 665.986 159.653 665.976C158.085 665.917 156.636 665.036 156.132 663.618C155.987 663.21 155.759 662.833 155.461 662.51C155.163 662.186 154.801 661.923 154.396 661.734C153.991 661.545 153.55 661.435 153.1 661.41C152.649 661.385 152.197 661.444 151.77 661.586L148.019 662.83C147.156 663.116 146.445 663.719 146.043 664.504C145.64 665.289 145.578 666.194 145.871 667.019V667.019C146.377 668.44 145.793 669.991 144.594 670.971C144.405 671.123 144.218 671.282 144.034 671.442C142.874 672.46 141.194 672.823 139.789 672.169C138.086 671.376 136.025 672.059 135.186 673.695L133.437 677.107C132.598 678.744 133.299 680.713 135.002 681.506C136.407 682.161 137.138 683.647 137.011 685.147C136.99 685.383 136.974 685.619 136.963 685.856C136.886 687.356 135.961 688.75 134.476 689.245C133.613 689.531 132.902 690.133 132.5 690.919C132.097 691.704 132.035 692.609 132.328 693.433L133.603 697.018C133.897 697.843 134.521 698.52 135.339 698.901C136.156 699.282 137.1 699.335 137.963 699.049V699.049C139.45 698.556 141.065 699.106 142.082 700.248C142.241 700.428 142.404 700.606 142.57 700.782C143.625 701.889 143.993 703.495 143.302 704.843L143.301 704.845Z" stroke="#02265C" stroke-width="4"/>
<path d="M148.892 682.195C150.162 679.718 152.404 677.82 155.125 676.917C157.846 676.015 160.823 676.183 163.401 677.384C165.979 678.585 167.947 680.721 168.873 683.321C169.798 685.922 169.604 688.775 168.334 691.252C167.064 693.729 164.822 695.627 162.101 696.53C159.38 697.432 156.403 697.264 153.824 696.063C151.246 694.862 149.278 692.726 148.353 690.125C147.428 687.525 147.622 684.672 148.892 682.195V682.195Z" stroke="#02265C" stroke-width="4"/>
<path d="M29.5252 586.678C28.0997 586.641 26.887 587.736 26.8156 589.124L26.667 592.016C26.5955 593.406 27.6927 594.56 29.1181 594.597C30.2935 594.627 31.2617 595.437 31.638 596.515C31.6985 596.685 31.763 596.855 31.8278 597.022C32.2414 598.085 32.0349 599.33 31.1615 600.121C30.6537 600.579 30.3493 601.211 30.3151 601.877C30.2808 602.543 30.5196 603.188 30.9789 603.672L32.9763 605.773C33.4359 606.256 34.0784 606.538 34.7624 606.555C35.4465 606.573 36.1161 606.326 36.6242 605.867V605.867C37.4996 605.077 38.7878 604.972 39.846 605.459C40.0125 605.535 40.1805 605.609 40.3498 605.68C41.4242 606.128 42.179 607.13 42.1202 608.275C42.0488 609.662 43.146 610.817 44.5714 610.853L47.5443 610.93C48.9697 610.967 50.1825 609.872 50.2538 608.484C50.3127 607.34 51.1684 606.379 52.286 605.988C52.4623 605.925 52.6388 605.858 52.8111 605.793C53.9144 605.364 55.1903 605.535 55.9824 606.366C56.4421 606.85 57.0845 607.131 57.7686 607.149C58.4526 607.166 59.1223 606.919 59.6304 606.46L61.8381 604.468C62.3459 604.009 62.6503 603.377 62.6846 602.711C62.7188 602.045 62.48 601.4 62.0207 600.916C61.2287 600.083 61.1505 598.832 61.6743 597.791C61.758 597.629 61.8378 597.462 61.9156 597.296C62.4016 596.24 63.4504 595.482 64.6258 595.512C66.0512 595.549 67.264 594.454 67.3353 593.067L67.4841 590.172C67.5554 588.785 66.4582 587.63 65.0328 587.594C63.8575 587.563 62.8892 586.753 62.5109 585.675C62.4525 585.505 62.39 585.335 62.3252 585.169C61.9075 584.106 62.1161 582.86 62.9894 582.072C63.2411 581.845 63.4455 581.573 63.5909 581.271C63.7363 580.97 63.8199 580.645 63.8368 580.315C63.8538 579.985 63.8038 579.656 63.6898 579.348C63.5757 579.04 63.3998 578.758 63.172 578.518L61.1747 576.417C60.715 575.934 60.0725 575.653 59.3885 575.635C58.7044 575.617 58.0348 575.865 57.5267 576.323V576.323C56.6513 577.113 55.3631 577.219 54.3048 576.734C54.1398 576.656 53.9706 576.582 53.8012 576.511C52.7267 576.063 51.972 575.06 52.0308 573.916C52.1021 572.528 51.0049 571.374 49.5795 571.337L46.6087 571.26C45.1833 571.224 43.9705 572.318 43.8991 573.706C43.8403 574.85 42.9846 575.811 41.8669 576.205C41.6908 576.267 41.5157 576.332 41.3418 576.399C40.2386 576.827 38.9627 576.655 38.1706 575.824C37.7109 575.341 37.0684 575.06 36.3844 575.042C35.7003 575.024 35.0307 575.272 34.5226 575.73L32.3148 577.723C31.8071 578.181 31.5026 578.813 31.4684 579.479C31.4342 580.145 31.673 580.791 32.1323 581.274V581.274C32.9243 582.107 33.0025 583.358 32.4786 584.399C32.3953 584.563 32.3149 584.728 32.2373 584.895C31.7494 585.951 30.7005 586.708 29.5272 586.678L29.5252 586.678Z" stroke="#02265C" stroke-width="4"/>
<path d="M47.4824 583.178C49.6396 583.233 51.6655 584.121 53.1146 585.645C54.5636 587.17 55.317 589.206 55.209 591.306C55.1011 593.406 54.1406 595.398 52.5389 596.844C50.9372 598.29 48.8255 599.07 46.6683 599.015C44.5111 598.959 42.4852 598.071 41.0362 596.547C39.5872 595.023 38.8338 592.986 38.9417 590.886C39.0497 588.786 40.0101 586.794 41.6118 585.348C43.2135 583.903 45.3252 583.122 47.4824 583.178V583.178Z" stroke="#02265C" stroke-width="4"/>
<path d="M54.1554 677.389C52.3443 679.459 52.628 682.537 54.7893 684.266L59.2938 687.868C61.4581 689.599 64.6769 689.322 66.488 687.252C67.9813 685.545 70.4837 685.057 72.6933 685.76C73.0432 685.869 73.3983 685.973 73.7472 686.071C75.9786 686.701 77.7432 688.464 77.9506 690.682C78.0699 691.971 78.7195 693.161 79.7567 693.991C80.7939 694.82 82.1337 695.221 83.4817 695.106L89.3412 694.602C90.6891 694.486 91.9345 693.862 92.8037 692.869C93.6728 691.876 94.0946 690.593 93.9762 689.304V689.304C93.7714 687.083 95.1833 685.05 97.2731 684.051C97.6018 683.893 97.9276 683.731 98.2505 683.563C100.297 682.494 102.849 682.547 104.631 683.972C106.792 685.701 110.011 685.424 111.822 683.354L115.6 679.037C117.411 676.967 117.127 673.889 114.966 672.16C113.184 670.735 112.677 668.343 113.416 666.228C113.531 665.893 113.64 665.554 113.746 665.222C114.406 663.085 116.252 661.394 118.572 661.192C119.92 661.075 121.166 660.452 122.035 659.458C122.904 658.465 123.326 657.183 123.207 655.894L122.691 650.291C122.572 649.002 121.922 647.812 120.885 646.982C119.848 646.153 118.508 645.752 117.16 645.867C114.836 646.067 112.713 644.72 111.67 642.726C111.509 642.413 111.338 642.1 111.164 641.79C110.05 639.835 110.11 637.393 111.603 635.687C113.415 633.616 113.131 630.539 110.97 628.81L106.462 625.205C104.301 623.477 101.082 623.753 99.2709 625.824C97.7775 627.53 95.2751 628.019 93.063 627.319C92.7157 627.207 92.3632 627.1 92.0143 627.002C89.7777 626.378 88.0157 624.612 87.8114 622.396C87.7526 621.757 87.5629 621.136 87.2529 620.568C86.943 620 86.519 619.496 86.005 619.085C85.4911 618.674 84.8973 618.364 84.2577 618.172C83.6181 617.981 82.9451 617.912 82.2771 617.97L76.4177 618.474C75.0698 618.59 73.8243 619.214 72.9552 620.207C72.0861 621.2 71.6643 622.482 71.7827 623.771V623.771C71.9875 625.993 70.5756 628.026 68.4889 629.028C68.1604 629.181 67.8328 629.346 67.5084 629.513C65.4622 630.582 62.9098 630.529 61.1278 629.104C58.9665 627.375 55.7478 627.652 53.9366 629.722L50.1619 634.036C48.3508 636.106 48.6345 639.184 50.7958 640.913C52.5779 642.338 53.084 644.73 52.3481 646.847C52.232 647.181 52.122 647.516 52.0182 647.853C51.3554 649.988 49.5093 651.679 47.189 651.881C45.8411 651.998 44.5957 652.621 43.7265 653.615C42.8574 654.608 42.4356 655.89 42.554 657.179L43.0705 662.782C43.1898 664.071 43.8394 665.261 44.8766 666.091C45.9138 666.92 47.2536 667.321 48.6016 667.206V667.206C50.925 667.006 53.0482 668.353 54.0917 670.347C54.2547 670.662 54.4234 670.974 54.5978 671.283C55.7093 673.241 55.6488 675.683 54.158 677.386L54.1554 677.389Z" stroke="#02265C" stroke-width="5"/>
<path d="M70.5472 646.674C73.2881 643.542 77.2161 641.576 81.467 641.211C85.7179 640.845 89.9436 642.109 93.2144 644.725C96.4852 647.341 98.5333 651.094 98.908 655.159C99.2827 659.224 97.9534 663.267 95.2125 666.4C92.4716 669.533 88.5436 671.498 84.2927 671.864C80.0418 672.229 75.8161 670.965 72.5453 668.349C69.2745 665.734 67.2265 661.981 66.8517 657.916C66.477 653.851 67.8064 649.807 70.5472 646.674V646.674Z" stroke="#02265C" stroke-width="5"/>
</svg>
