<svg width="1440" height="404" viewBox="0 0 1440 404" fill="none" xmlns="http://www.w3.org/2000/svg">
<path d="M1398.93 452C1398.93 615.377 1084.93 452 650.934 452C244.606 452 -103.066 531.377 -103.066 368C-103.066 204.623 -257.828 60.9999 148.5 60.9999C554.828 60.9999 1398.93 288.623 1398.93 452Z" fill="#1194FF"/>
<path d="M1466.93 398C1466.93 515.812 1411.83 493.639 1200.37 493.639C988.91 493.639 436.934 300.362 436.934 182.55C436.934 64.7379 1160.93 95.9999 1484.93 51.9999C1484.93 168 1466.93 280.188 1466.93 398Z" fill="#9EF2FE" fill-opacity="0.5"/>
<g clip-path="url(#clip0)">
<path d="M1328.27 197.578C1328.98 197.724 1329.65 197.961 1330.27 198.281L1337.18 201.975C1337.91 202.349 1338.55 202.85 1339.06 203.452C1339.86 204.401 1340.31 205.571 1340.34 206.808C1340.38 208.045 1340.01 209.291 1339.27 210.383C1337.73 212.697 1334.92 216.927 1329.8 224.571C1320 239.193 1304.05 265.753 1297.38 277.622C1297.04 278.22 1296.58 278.756 1296.02 279.197C1295.47 279.639 1294.82 279.976 1294.13 280.187C1293.44 280.398 1292.72 280.479 1292.02 280.424C1291.32 280.37 1290.65 280.181 1290.05 279.869L1275.04 272.094C1274.44 271.78 1273.92 271.35 1273.53 270.832C1273.14 270.314 1272.87 269.719 1272.75 269.084C1272.62 268.448 1272.65 267.787 1272.82 267.141C1272.99 266.495 1273.3 265.879 1273.73 265.331C1282.58 254.236 1301.56 229.137 1311.24 214.685C1316.18 207.271 1319.04 203.091 1320.61 200.739C1321.42 199.563 1322.6 198.625 1323.97 198.058C1325.35 197.49 1326.85 197.322 1328.27 197.578V197.578Z" stroke="#02265C" stroke-width="10" stroke-linecap="round" stroke-linejoin="round"/>
<path d="M1329.28 136.979L1342.27 143.876C1342.47 143.98 1342.64 144.123 1342.77 144.295C1342.91 144.467 1343 144.664 1343.04 144.875C1343.09 145.083 1343.1 145.301 1343.06 145.518C1343.02 145.734 1342.93 145.945 1342.81 146.137C1342.5 146.588 1342.3 147.09 1342.24 147.605C1342.17 148.119 1342.23 148.633 1342.42 149.105C1342.87 150.331 1343.63 151.564 1344.77 152.19C1347.4 153.603 1351.1 150.205 1354.23 151.234C1357.67 152.444 1361 153.888 1364.18 155.557C1366.85 156.976 1377.03 162.639 1386.15 174.279C1389.07 177.991 1391.13 182.245 1392.2 186.802C1393.96 194.249 1391.62 200.944 1389.99 203.588C1388.72 205.688 1386.47 208.114 1386.47 208.114C1386.64 207.009 1386.73 205.9 1386.75 204.795C1386.75 202.499 1386.39 200.241 1385.66 198.093C1384.21 193.801 1380.66 189.103 1377.51 186.91C1372.33 183.4 1366.4 182.862 1359.27 184.402C1353.97 185.55 1348.42 191.816 1344.03 197.53C1343.65 198.032 1343.08 198.394 1342.44 198.539C1341.8 198.684 1341.14 198.601 1340.6 198.309L1332.5 194.054C1331.95 193.756 1331.55 193.262 1331.41 192.675C1331.26 192.089 1331.38 191.457 1331.73 190.914C1335.04 185.864 1338.6 179.782 1339.83 176.539C1341.06 173.295 1341.07 170.938 1340.95 169.838C1340.68 167.685 1339.67 165.714 1338.07 164.199C1337.79 163.931 1337.47 163.704 1337.11 163.524C1334.62 162.239 1331.27 163.232 1329.68 165.621L1329.22 166.342C1329.1 166.531 1328.93 166.698 1328.74 166.833C1328.55 166.968 1328.33 167.068 1328.1 167.129C1327.87 167.189 1327.63 167.207 1327.4 167.183C1327.17 167.159 1326.95 167.092 1326.76 166.987L1313.77 160.09C1313.57 159.984 1313.4 159.841 1313.27 159.669C1313.14 159.497 1313.05 159.3 1313.01 159.09C1312.9 158.671 1312.98 158.218 1313.23 157.829L1326.77 137.637C1327.04 137.259 1327.45 136.98 1327.92 136.858C1328.39 136.735 1328.88 136.779 1329.28 136.979V136.979Z" stroke="#02265C" stroke-width="10" stroke-linecap="round" stroke-linejoin="round"/>
</g>
<path d="M122.282 144.413C121.435 145.709 121.827 147.398 123.159 148.187L125.936 149.831C127.27 150.621 129.035 150.21 129.883 148.914C130.581 147.846 131.933 147.374 133.214 147.589C133.416 147.622 133.622 147.651 133.823 147.678C135.11 147.85 136.224 148.69 136.509 149.907C136.674 150.615 137.125 151.225 137.765 151.603C138.404 151.982 139.178 152.098 139.918 151.926L143.133 151.178C143.872 151.006 144.516 150.56 144.922 149.938C145.329 149.316 145.465 148.569 145.301 147.861V147.861C145.018 146.642 145.646 145.399 146.73 144.676C146.9 144.562 147.069 144.446 147.235 144.327C148.29 143.569 149.711 143.395 150.809 144.045C152.141 144.834 153.907 144.423 154.754 143.127L156.522 140.424C157.369 139.128 156.976 137.439 155.644 136.65C154.546 136 154.082 134.709 154.331 133.474C154.369 133.279 154.403 133.081 154.437 132.889C154.64 131.647 155.536 130.559 156.808 130.261C157.548 130.089 158.192 129.643 158.598 129.021C159.005 128.399 159.141 127.652 158.977 126.945L158.262 123.869C158.097 123.162 157.645 122.552 157.006 122.173C156.367 121.795 155.592 121.679 154.853 121.85C153.578 122.147 152.296 121.567 151.565 120.542C151.452 120.38 151.332 120.219 151.212 120.061C150.444 119.062 150.291 117.7 150.99 116.631C151.837 115.335 151.444 113.646 150.112 112.857L147.334 111.212C146.002 110.423 144.236 110.834 143.389 112.13C142.69 113.198 141.338 113.67 140.057 113.457C139.855 113.422 139.651 113.391 139.45 113.364C138.161 113.196 137.048 112.354 136.765 111.138C136.683 110.787 136.53 110.457 136.315 110.166C136.099 109.874 135.826 109.628 135.509 109.44C135.192 109.253 134.839 109.128 134.469 109.072C134.099 109.017 133.72 109.032 133.354 109.118L130.139 109.866C129.4 110.038 128.756 110.484 128.349 111.106C127.943 111.728 127.806 112.475 127.971 113.182V113.182C128.254 114.402 127.626 115.645 126.544 116.369C126.373 116.481 126.204 116.598 126.036 116.717C124.982 117.475 123.561 117.649 122.463 116.999C121.131 116.21 119.365 116.621 118.517 117.916L116.751 120.618C115.904 121.913 116.297 123.603 117.629 124.392C118.727 125.042 119.191 126.332 118.944 127.569C118.905 127.763 118.87 127.959 118.838 128.155C118.633 129.395 117.737 130.483 116.465 130.781C115.725 130.953 115.081 131.399 114.675 132.021C114.268 132.643 114.132 133.39 114.296 134.097L115.011 137.173C115.176 137.88 115.627 138.49 116.267 138.869C116.906 139.247 117.681 139.363 118.42 139.191V139.191C119.695 138.895 120.977 139.475 121.708 140.5C121.823 140.663 121.94 140.823 122.061 140.981C122.828 141.981 122.981 143.344 122.283 144.411L122.282 144.413Z" stroke="#02265C" stroke-width="4"/>
<path d="M129.034 126.02C130.316 124.059 132.347 122.652 134.679 122.11C137.011 121.567 139.454 121.933 141.47 123.127C143.486 124.321 144.91 126.245 145.428 128.476C145.947 130.707 145.518 133.062 144.236 135.024C142.953 136.985 140.923 138.392 138.591 138.934C136.258 139.477 133.816 139.111 131.8 137.917C129.784 136.723 128.36 134.799 127.841 132.568C127.323 130.337 127.752 127.982 129.034 126.02V126.02Z" stroke="#02265C" stroke-width="4"/>
<path d="M38.8763 37.1145C37.7014 36.9695 36.6009 37.7808 36.4177 38.9271L36.0357 41.3161C35.8522 42.4639 36.6557 43.5102 37.8305 43.6551C38.7993 43.7746 39.5271 44.5247 39.7415 45.4499C39.7762 45.5959 39.8143 45.7423 39.853 45.8855C40.0996 46.8013 39.8174 47.8186 39.0247 48.4045C38.5639 48.7444 38.2557 49.2444 38.1678 49.7944C38.0798 50.3445 38.2193 50.8997 38.5557 51.338L40.0183 53.2425C40.355 53.6806 40.8608 53.9657 41.4246 54.0352C41.9885 54.1048 42.5641 53.9531 43.0251 53.6135V53.6135C43.8195 53.0278 44.8937 53.0437 45.7247 53.533C45.8555 53.6099 45.9877 53.6846 46.1212 53.757C46.9692 54.2151 47.5032 55.108 47.3521 56.0532C47.1689 57.1994 47.9723 58.2456 49.1472 58.3906L51.5976 58.6929C52.7725 58.8378 53.8729 58.0265 54.0562 56.8803C54.2073 55.9351 55.0007 55.206 55.9595 54.9708C56.1108 54.9328 56.2627 54.8915 56.411 54.8514C57.3613 54.5835 58.4006 54.8284 58.9809 55.582C59.3175 56.02 59.8233 56.3051 60.3872 56.3747C60.951 56.4442 61.5266 56.2925 61.9876 55.9529L63.991 54.476C64.4517 54.136 64.7599 53.6361 64.8479 53.086C64.9358 52.536 64.7963 51.9808 64.46 51.5425C63.88 50.7873 63.9274 49.7427 64.4536 48.9205C64.5373 48.7925 64.6182 48.6607 64.6974 48.5288C65.1937 47.6912 66.1285 47.1463 67.0972 47.2658C68.2721 47.4107 69.3726 46.5994 69.5559 45.4532L69.9381 43.0626C70.1214 41.9163 69.3179 40.8701 68.143 40.7252C67.1742 40.6056 66.4465 39.8556 66.2304 38.9302C66.1973 38.7843 66.1609 38.6381 66.1222 38.495C65.8722 37.5787 66.1562 36.5616 66.9486 35.9774C67.177 35.8091 67.3703 35.5996 67.5175 35.361C67.6647 35.1224 67.7629 34.8593 67.8065 34.5867C67.8501 34.3142 67.8382 34.0375 67.7715 33.7725C67.7048 33.5075 67.5846 33.2594 67.4179 33.0423L65.9552 31.1377C65.6185 30.6997 65.1127 30.4146 64.5489 30.345C63.9851 30.2754 63.4094 30.4272 62.9484 30.7668V30.7668C62.154 31.3524 61.0799 31.3366 60.2486 30.8489C60.1192 30.7712 59.9859 30.6964 59.8523 30.6232C59.0043 30.1651 58.4703 29.2722 58.6214 28.3271C58.8047 27.1808 58.0012 26.1346 56.8263 25.9897L54.3776 25.6876C53.2027 25.5426 52.1023 26.3539 51.919 27.5002C51.7679 28.4453 50.9745 29.1745 50.0154 29.4113C49.8643 29.4485 49.7138 29.4883 49.564 29.5307C48.6139 29.797 47.5746 29.552 46.9944 28.7985C46.6577 28.3605 46.1519 28.0753 45.588 28.0058C45.0242 27.9362 44.4486 28.0879 43.9876 28.4275L41.9842 29.9045C41.5235 30.2444 41.2153 30.7444 41.1273 31.2944C41.0394 31.8445 41.1789 32.3997 41.5152 32.838V32.838C42.0952 33.5932 42.0478 34.6378 41.5216 35.4599C41.438 35.5892 41.3567 35.7198 41.2778 35.8517C40.7799 36.689 39.845 37.234 38.878 37.1147L38.8763 37.1145Z" stroke="#02265C" stroke-width="4"/>
<path d="M54.0376 35.6543C55.8156 35.8741 57.4104 36.774 58.4711 38.156C59.5319 39.5379 59.9718 41.2888 59.694 43.0235C59.4163 44.7581 58.4436 46.3344 56.9899 47.4055C55.5363 48.4767 53.7208 48.955 51.9428 48.7352C50.1649 48.5154 48.5701 47.6155 47.5093 46.2336C46.4485 44.8516 46.0086 43.1007 46.2864 41.3661C46.5641 39.6314 47.5368 38.0552 48.9905 36.984C50.4441 35.9128 52.2596 35.4345 54.0376 35.6543V35.6543Z" stroke="#02265C" stroke-width="4"/>
<path d="M51.0662 114.439C49.3788 116.015 49.3311 118.591 50.9595 120.195L54.3535 123.537C55.9842 125.143 58.671 125.165 60.3583 123.589C61.7497 122.29 63.8635 122.081 65.6259 122.837C65.9052 122.955 66.1893 123.069 66.4688 123.178C68.256 123.875 69.5533 125.476 69.5213 127.333C69.5017 128.412 69.9296 129.451 70.7111 130.22C71.4926 130.99 72.5636 131.428 73.6888 131.437L78.5798 131.478C79.7049 131.487 80.7919 131.067 81.6016 130.311C82.4114 129.555 82.8777 128.524 82.8981 127.445V127.445C82.9326 125.585 84.2864 124.009 86.1059 123.343C86.3922 123.238 86.6765 123.129 86.9589 123.015C88.7488 122.288 90.8542 122.532 92.1969 123.855C93.8254 125.458 96.5121 125.481 98.1995 123.904L101.719 120.618C103.406 119.042 103.454 116.465 101.825 114.862C100.483 113.539 100.284 111.514 101.089 109.818C101.214 109.549 101.335 109.275 101.454 109.009C102.195 107.286 103.877 106.028 105.814 106.042C106.939 106.051 108.026 105.631 108.836 104.875C109.645 104.118 110.112 103.087 110.132 102.008L110.219 97.3182C110.239 96.2393 109.811 95.2009 109.029 94.4313C108.248 93.6618 107.177 93.224 106.051 93.2142C104.112 93.1981 102.48 91.9142 101.8 90.1779C101.696 89.9048 101.583 89.6317 101.468 89.3608C100.726 87.6511 101 85.6301 102.391 84.3306C104.079 82.7546 104.126 80.1783 102.498 78.5746L99.1015 75.2301C97.4731 73.6265 94.7863 73.6041 93.099 75.1801C91.7077 76.4796 89.5938 76.6888 87.829 75.9347C87.5521 75.8144 87.2704 75.6987 86.9909 75.5897C85.1989 74.8966 83.904 73.2935 83.9384 71.4383C83.9484 70.9037 83.8485 70.3733 83.6443 69.8776C83.4402 69.3819 83.1358 68.9304 82.7486 68.5491C82.3613 68.1678 81.8988 67.864 81.3875 67.6552C80.8762 67.4464 80.3261 67.3365 79.7685 67.332L74.8776 67.2913C73.7524 67.2823 72.6655 67.7021 71.8557 68.4584C71.0459 69.2147 70.5796 70.2457 70.5592 71.3246V71.3246C70.5248 73.1843 69.1709 74.7608 67.3537 75.4285C67.068 75.5304 66.782 75.6415 66.4985 75.7548C64.7085 76.4816 62.6031 76.2372 61.2604 74.915C59.6319 73.3114 56.9452 73.289 55.2578 74.865L51.7411 78.1497C50.0537 79.7257 50.0059 82.3021 51.6344 83.9057C52.9771 85.2279 53.1761 87.2529 52.3735 88.952C52.2469 89.2196 52.1252 89.4893 52.0084 89.761C51.2646 91.4809 49.5831 92.7395 47.646 92.7256C46.5209 92.7166 45.4339 93.1364 44.6242 93.8927C43.8144 94.649 43.3481 95.68 43.3277 96.7589L43.2408 101.449C43.2212 102.528 43.6492 103.566 44.4306 104.336C45.2121 105.105 46.2831 105.543 47.4083 105.553V105.553C49.3477 105.569 50.9797 106.853 51.6595 108.589C51.7654 108.864 51.8763 109.136 51.9921 109.406C52.7315 111.118 52.4575 113.139 51.0686 114.437L51.0662 114.439Z" stroke="#F3FBFF" stroke-width="5"/>
<path d="M67.4367 90.234C69.9904 87.8489 73.4184 86.5257 76.9667 86.5553C80.515 86.5849 83.8929 87.965 86.3573 90.3919C88.8217 92.8188 90.1707 96.0938 90.1076 99.4963C90.0445 102.899 88.5744 106.15 86.0207 108.535C83.467 110.92 80.039 112.244 76.4907 112.214C72.9424 112.184 69.5645 110.804 67.1001 108.377C64.6357 105.951 63.2867 102.676 63.3498 99.273C63.413 95.8704 64.8831 92.619 67.4367 90.234V90.234Z" stroke="#F3FBFF" stroke-width="5"/>
<rect y="332" width="1440" height="72" fill="#084C84"/>
<defs>
<clipPath id="clip0">
<rect width="170.89" height="190.377" fill="white" transform="matrix(-0.230426 -0.97309 -0.967368 0.253375 1433.54 274.291)"/>
</clipPath>
</defs>
</svg>
