<svg width="768" height="471" viewBox="0 0 768 471" fill="none" xmlns="http://www.w3.org/2000/svg">
<path d="M778 -20.9415C778 78.584 449.576 580.182 -64.4067 398.826C-260.764 398.826 -17.5985 -10.6965 -17.5985 -110.222C-17.5985 -209.747 84.9315 -202.9 281.288 -202.9C477.645 -202.9 778 -120.467 778 -20.9415Z" fill="#1194FF"/>
<path d="M1114.47 312.417C1114.47 380.647 1378.6 438.682 880.354 373.244C660.434 373.244 198 -34.1473 198 -102.377C198 -170.608 660.434 6.75143 880.354 6.75143C1100.27 6.75143 1114.47 244.187 1114.47 312.417Z" fill="#5AE9FE" fill-opacity="0.59"/>
<path d="M99.5074 448.438C98.3477 449.464 98.2801 451.197 99.3564 452.309L101.599 454.629C102.677 455.743 104.489 455.814 105.649 454.788C106.605 453.942 108.033 453.844 109.211 454.39C109.398 454.475 109.588 454.557 109.775 454.636C110.971 455.143 111.824 456.247 111.777 457.496C111.749 458.222 112.023 458.93 112.54 459.464C113.056 459.998 113.772 460.315 114.531 460.344L117.829 460.472C118.588 460.502 119.327 460.241 119.883 459.749C120.44 459.257 120.768 458.572 120.797 457.847V457.847C120.846 456.596 121.78 455.563 123.017 455.152C123.211 455.088 123.405 455.02 123.597 454.949C124.814 454.496 126.23 454.704 127.118 455.622C128.194 456.735 130.006 456.805 131.165 455.779L133.584 453.639C134.744 452.613 134.811 450.88 133.735 449.767C132.848 448.85 132.741 447.483 133.307 446.357C133.396 446.179 133.481 445.997 133.565 445.82C134.088 444.676 135.24 443.864 136.546 443.913C137.305 443.942 138.044 443.682 138.6 443.19C139.157 442.697 139.485 442.013 139.514 441.287L139.637 438.132C139.665 437.407 139.391 436.699 138.874 436.165C138.358 435.631 137.641 435.314 136.883 435.284C135.575 435.234 134.492 434.336 134.057 433.153C133.991 432.967 133.918 432.781 133.844 432.596C133.367 431.43 133.58 430.076 134.536 429.23C135.696 428.204 135.763 426.471 134.687 425.358L132.443 423.037C131.366 421.924 129.555 421.854 128.395 422.88C127.439 423.726 126.01 423.823 124.831 423.279C124.645 423.192 124.457 423.109 124.27 423.03C123.071 422.526 122.22 421.421 122.268 420.173C122.282 419.813 122.222 419.454 122.092 419.116C121.961 418.778 121.762 418.468 121.506 418.204C121.25 417.939 120.942 417.725 120.6 417.574C120.258 417.423 119.889 417.338 119.513 417.323L116.215 417.195C115.456 417.166 114.717 417.426 114.16 417.918C113.604 418.411 113.275 419.095 113.247 419.821V419.821C113.198 421.072 112.263 422.105 111.028 422.517C110.834 422.58 110.64 422.648 110.447 422.719C109.23 423.171 107.813 422.963 106.926 422.046C105.85 420.933 104.038 420.862 102.878 421.888L100.461 424.027C99.3017 425.053 99.2341 426.786 100.31 427.899C101.198 428.816 101.304 430.183 100.739 431.31C100.65 431.488 100.565 431.667 100.482 431.847C99.9568 432.99 98.8054 433.802 97.4992 433.753C96.7405 433.724 96.0017 433.984 95.4452 434.476C94.8887 434.969 94.56 435.653 94.5314 436.379L94.4083 439.534C94.3803 440.259 94.6546 440.967 95.1711 441.501C95.6876 442.035 96.4039 442.352 97.1626 442.382V442.382C98.4703 442.432 99.5534 443.33 99.988 444.513C100.056 444.699 100.127 444.885 100.201 445.069C100.676 446.237 100.464 447.592 99.5091 448.436L99.5074 448.438Z" stroke="#02265C" stroke-width="4"/>
<path d="M110.88 432.483C112.635 430.931 114.965 430.111 117.357 430.204C119.75 430.296 122.009 431.295 123.638 432.979C125.267 434.663 126.132 436.895 126.042 439.184C125.953 441.473 124.917 443.631 123.162 445.184C121.407 446.736 119.077 447.556 116.684 447.463C114.291 447.37 112.032 446.372 110.404 444.688C108.775 443.004 107.91 440.772 107.999 438.483C108.089 436.194 109.125 434.036 110.88 432.483V432.483Z" stroke="#02265C" stroke-width="4"/>
<path d="M47.4205 322.913C46.3256 322.463 45.0499 322.955 44.5702 324.012L43.5706 326.215C43.0902 327.273 43.5887 328.495 44.6835 328.945C45.5862 329.316 46.0899 330.232 46.0522 331.181C46.0472 331.331 46.0452 331.482 46.0447 331.631C46.0405 332.579 45.4995 333.486 44.5801 333.841C44.0459 334.047 43.6166 334.448 43.3864 334.955C43.1562 335.463 43.1441 336.035 43.3526 336.546L44.26 338.77C44.469 339.281 44.8815 339.69 45.4069 339.906C45.9323 340.122 46.5276 340.128 47.0619 339.922V339.922C47.9828 339.567 49.0146 339.866 49.6867 340.558C49.7926 340.667 49.9003 340.774 50.01 340.879C50.7068 341.545 50.9859 342.547 50.5904 343.419C50.1107 344.476 50.6092 345.697 51.704 346.147L53.9874 347.086C55.0822 347.537 56.358 347.045 56.8376 345.988C57.2331 345.116 58.191 344.623 59.1778 344.649C59.3338 344.652 59.4912 344.653 59.6448 344.653C60.6322 344.646 61.5698 345.157 61.9303 346.037C62.1392 346.548 62.5517 346.957 63.0771 347.173C63.6025 347.389 64.1978 347.395 64.7322 347.189L67.0546 346.294C67.5888 346.088 68.0181 345.687 68.2483 345.18C68.4785 344.673 68.4906 344.101 68.2821 343.589C67.9223 342.707 68.244 341.712 68.9688 341.059C69.0834 340.957 69.1962 340.851 69.3075 340.745C70.0074 340.069 71.053 339.79 71.9557 340.161C73.0506 340.612 74.3263 340.12 74.806 339.063L75.8063 336.858C76.286 335.801 75.7875 334.58 74.6927 334.129C73.79 333.758 73.2863 332.842 73.3224 331.893C73.329 331.743 73.3325 331.593 73.3331 331.445C73.3341 330.495 73.8767 329.589 74.7954 329.235C75.0601 329.133 75.3019 328.982 75.5069 328.791C75.712 328.599 75.8762 328.372 75.9902 328.12C76.1043 327.869 76.1659 327.599 76.1717 327.326C76.1774 327.053 76.1271 326.781 76.0236 326.528L75.1162 324.305C74.9072 323.793 74.4947 323.385 73.9693 323.169C73.4439 322.952 72.8486 322.947 72.3143 323.152V323.152C71.3934 323.507 70.3616 323.208 69.6888 322.518C69.5844 322.409 69.4756 322.302 69.3661 322.196C68.6694 321.53 68.3903 320.528 68.7858 319.656C69.2654 318.599 68.767 317.378 67.6722 316.927L65.3904 315.989C64.2955 315.539 63.0198 316.03 62.5401 317.087C62.1446 317.959 61.1868 318.453 60.1992 318.428C60.0436 318.423 59.888 318.422 59.7323 318.423C58.7456 318.429 57.808 317.918 57.4475 317.038C57.2385 316.527 56.826 316.118 56.3006 315.902C55.7752 315.686 55.1799 315.68 54.6456 315.886L52.3232 316.781C51.789 316.987 51.3596 317.388 51.1294 317.895C50.8992 318.402 50.8871 318.975 51.0957 319.486V319.486C51.4555 320.368 51.1337 321.363 50.4089 322.017C50.2942 322.119 50.1813 322.224 50.0703 322.33C49.3688 323.006 48.3232 323.285 47.422 322.914L47.4205 322.913Z" stroke="#02265C" stroke-width="4"/>
<path d="M62.4286 325.511C64.0853 326.193 65.3857 327.483 66.0435 329.096C66.7014 330.709 66.663 332.514 65.9367 334.113C65.2104 335.713 63.8558 336.976 62.1708 337.625C60.4857 338.274 58.6084 338.256 56.9517 337.574C55.295 336.892 53.9947 335.603 53.3368 333.99C52.6789 332.376 52.7173 330.571 53.4436 328.972C54.1699 327.372 55.5246 326.109 57.2096 325.46C58.8946 324.811 60.772 324.83 62.4286 325.511V325.511Z" stroke="#02265C" stroke-width="4"/>
<path d="M38.7439 400.71C36.7 401.784 35.9731 404.257 37.1199 406.234L39.5101 410.354C40.6585 412.334 43.2438 413.065 45.2877 411.991C46.9729 411.105 49.0669 411.462 50.5668 412.658C50.805 412.845 51.049 413.03 51.2898 413.209C52.829 414.354 53.6572 416.24 53.1355 418.023C52.8315 419.059 52.9698 420.173 53.5202 421.122C54.0705 422.071 54.9878 422.776 56.0704 423.083L60.7767 424.415C61.8595 424.721 63.0188 424.603 63.9996 424.087C64.9804 423.572 65.7026 422.701 66.0074 421.666V421.666C66.5321 419.881 68.2544 418.719 70.1851 418.558C70.4888 418.532 70.792 418.502 71.0945 418.466C73.0128 418.238 74.9789 419.03 75.9244 420.66C77.0712 422.637 79.6566 423.369 81.7004 422.295L85.9631 420.055C88.0069 418.98 88.7338 416.508 87.587 414.531C86.6414 412.901 86.9846 410.896 88.2093 409.472C88.4015 409.246 88.5904 409.014 88.7752 408.788C89.9455 407.323 91.8998 406.554 93.7643 407.079C94.8471 407.385 96.0063 407.267 96.9871 406.752C97.968 406.236 98.6901 405.365 98.9949 404.33L100.318 399.83C100.622 398.794 100.484 397.68 99.9334 396.731C99.3831 395.782 98.4658 395.077 97.3832 394.77C95.5171 394.242 94.2823 392.573 94.0855 390.718C94.0576 390.428 94.0206 390.134 93.9807 389.842C93.717 387.998 94.5153 386.121 96.2006 385.235C98.2444 384.161 98.9713 381.689 97.8245 379.712L95.4327 375.589C94.2859 373.612 91.7006 372.88 89.6568 373.954C87.9715 374.84 85.8775 374.483 84.3747 373.29C84.1394 373.1 83.8983 372.914 83.6576 372.735C82.1125 371.593 81.2872 369.705 81.8106 367.925C81.9615 367.412 82.0053 366.874 81.9394 366.342C81.8735 365.81 81.6992 365.294 81.4265 364.824C81.1538 364.354 80.7881 363.939 80.3501 363.602C79.9121 363.266 79.4106 363.014 78.8741 362.863L74.1677 361.531C73.0849 361.225 71.9257 361.343 70.9448 361.858C69.964 362.373 69.2418 363.245 68.9371 364.28V364.28C68.4124 366.064 66.69 367.227 64.761 367.391C64.4585 367.414 64.1534 367.445 63.85 367.479C61.9316 367.707 59.9656 366.915 59.02 365.285C57.8732 363.308 55.2879 362.577 53.244 363.651L48.9843 365.889C46.9404 366.964 46.2136 369.436 47.3604 371.413C48.3059 373.043 47.9628 375.048 46.7397 376.475C46.5469 376.7 46.3582 376.928 46.1738 377.159C45.0019 378.621 43.0476 379.39 41.1831 378.865C40.1003 378.559 38.9411 378.677 37.9602 379.192C36.9794 379.708 36.2572 380.579 35.9524 381.614L34.6292 386.114C34.3252 387.15 34.4636 388.264 35.0139 389.213C35.5643 390.162 36.4815 390.867 37.5641 391.174V391.174C39.4303 391.702 40.665 393.371 40.8618 395.226C40.8915 395.518 40.9265 395.81 40.9667 396.102C41.2274 397.948 40.4291 399.825 38.7468 400.709L38.7439 400.71Z" stroke="#F3FBFF" stroke-width="5"/>
<path d="M60.9287 381.692C64.0218 380.066 67.6777 379.696 71.092 380.662C74.5064 381.628 77.3995 383.852 79.135 386.844C80.8704 389.836 81.3061 393.351 80.3461 396.616C79.386 399.881 77.109 402.628 74.0159 404.253C70.9227 405.879 67.2668 406.249 63.8525 405.283C60.4382 404.317 57.545 402.093 55.8096 399.101C54.0741 396.109 53.6384 392.594 54.5985 389.33C55.5585 386.065 57.8355 383.317 60.9287 381.692V381.692Z" stroke="#F3FBFF" stroke-width="5"/>
<g clip-path="url(#clip0)">
<path d="M598.274 244.578C598.978 244.724 599.648 244.961 600.267 245.281L607.183 248.975C607.912 249.349 608.548 249.85 609.059 250.452C609.858 251.401 610.306 252.571 610.345 253.808C610.383 255.045 610.01 256.291 609.274 257.383C607.731 259.697 604.92 263.927 599.801 271.571C589.996 286.193 574.049 312.753 567.376 324.622C567.042 325.22 566.582 325.756 566.024 326.197C565.466 326.639 564.822 326.976 564.133 327.187C563.444 327.398 562.725 327.479 562.021 327.424C561.318 327.37 560.646 327.181 560.047 326.869L545.039 319.094C544.438 318.78 543.925 318.35 543.53 317.832C543.136 317.314 542.869 316.719 542.746 316.084C542.624 315.448 542.648 314.787 542.818 314.141C542.988 313.495 543.3 312.879 543.735 312.331C552.585 301.236 571.562 276.137 581.241 261.685C586.183 254.271 589.041 250.091 590.607 247.739C591.419 246.563 592.596 245.625 593.973 245.058C595.349 244.49 596.854 244.322 598.274 244.578V244.578Z" stroke="#02265C" stroke-width="10" stroke-linecap="round" stroke-linejoin="round"/>
<path d="M599.285 183.979L612.272 190.876C612.471 190.98 612.642 191.123 612.774 191.295C612.906 191.467 612.996 191.664 613.039 191.875C613.093 192.083 613.1 192.301 613.06 192.518C613.02 192.734 612.934 192.945 612.807 193.137C612.499 193.588 612.304 194.09 612.237 194.605C612.169 195.119 612.231 195.633 612.418 196.105C612.872 197.331 613.628 198.564 614.771 199.19C617.397 200.603 621.1 197.205 624.229 198.234C627.673 199.444 630.997 200.888 634.175 202.557C636.849 203.976 647.029 209.639 656.15 221.279C659.07 224.991 661.125 229.245 662.201 233.802C663.965 241.249 661.623 247.944 659.995 250.588C658.716 252.688 656.468 255.114 656.468 255.114C656.637 254.009 656.731 252.9 656.751 251.795C656.755 249.499 656.387 247.241 655.662 245.093C654.215 240.801 650.664 236.103 647.507 233.91C642.335 230.4 636.4 229.862 629.271 231.402C623.97 232.55 618.418 238.816 614.034 244.53C613.648 245.032 613.077 245.394 612.438 245.539C611.799 245.684 611.141 245.601 610.602 245.309L602.505 241.054C601.946 240.756 601.553 240.262 601.408 239.675C601.263 239.089 601.378 238.457 601.728 237.914C605.044 232.864 608.599 226.782 609.831 223.539C611.063 220.295 611.07 217.938 610.946 216.838C610.676 214.685 609.67 212.714 608.068 211.199C607.79 210.931 607.469 210.704 607.113 210.524C604.618 209.239 601.274 210.232 599.682 212.621L599.222 213.342C599.096 213.531 598.932 213.698 598.739 213.833C598.546 213.968 598.329 214.068 598.099 214.129C597.87 214.189 597.633 214.207 597.402 214.183C597.172 214.159 596.953 214.092 596.757 213.987L583.77 207.09C583.572 206.984 583.402 206.841 583.27 206.669C583.139 206.497 583.049 206.3 583.005 206.09C582.899 205.671 582.981 205.218 583.235 204.829L596.769 184.637C597.041 184.259 597.453 183.98 597.92 183.858C598.388 183.735 598.876 183.779 599.285 183.979V183.979Z" stroke="#02265C" stroke-width="10" stroke-linecap="round" stroke-linejoin="round"/>
</g>
<defs>
<clipPath id="clip0">
<rect width="170.89" height="190.377" fill="white" transform="matrix(-0.230426 -0.97309 -0.967368 0.253375 703.542 321.291)"/>
</clipPath>
</defs>
</svg>
