<svg width="31" height="31" viewBox="0 0 31 31" fill="none" xmlns="http://www.w3.org/2000/svg">
<path d="M30.7283 29.335L21.3408 19.8594C23.2123 17.6191 24.148 15.0358 24.148 12.1094C24.148 9.90951 23.6097 7.88118 22.5331 6.02441C21.4565 4.16764 19.9875 2.69938 18.1261 1.61963C16.2647 0.539876 14.2423 0 12.0589 0C9.87553 0 7.85816 0.539876 6.00682 1.61963C4.15547 2.69938 2.6915 4.16764 1.6149 6.02441C0.538299 7.88118 0 9.90951 0 12.1094C0 14.3092 0.538299 16.3376 1.6149 18.1943C2.6915 20.0511 4.15547 21.5194 6.00682 22.5991C7.85816 23.6789 9.88056 24.2188 12.074 24.2188C15.0724 24.2188 17.7085 23.2298 19.9825 21.252L29.3398 30.6973C29.5411 30.8991 29.7725 31 30.0341 31C30.2957 31 30.5221 30.9041 30.7132 30.7124C30.9044 30.5207 31 30.2886 31 30.0161C31 29.7437 30.9094 29.5166 30.7283 29.335ZM12.074 22.3115C10.2227 22.3115 8.5172 21.8524 6.95764 20.9341C5.39808 20.0158 4.16553 18.7746 3.25998 17.2104C2.35443 15.6463 1.90166 13.946 1.90166 12.1094C1.90166 10.2728 2.35443 8.57243 3.25998 7.0083C4.16553 5.44417 5.39808 4.20296 6.95764 3.28467C8.5172 2.36637 10.2176 1.90723 12.0589 1.90723C13.9002 1.90723 15.6006 2.36637 17.1602 3.28467C18.7197 4.20296 19.9523 5.44417 20.8578 7.0083C21.7634 8.57243 22.2162 10.2728 22.2162 12.1094C22.2162 12.8965 22.1256 13.6735 21.9445 14.4404C21.7634 15.2074 21.5068 15.9238 21.1748 16.5898C20.8427 17.2559 20.4453 17.8866 19.9825 18.4819C19.5196 19.0773 18.9964 19.6071 18.4129 20.0713C17.8293 20.5355 17.2055 20.9341 16.5414 21.2671C15.8773 21.6001 15.1629 21.8574 14.3982 22.0391C13.6336 22.2207 12.8588 22.3115 12.074 22.3115Z" fill="#02265C"/>
</svg>
