<svg width="720" height="750" viewBox="0 0 720 750" fill="none" xmlns="http://www.w3.org/2000/svg">
<path d="M593.438 -73.4448C600.418 -31.1645 290.364 90.513 122.765 118.18C-44.8329 145.847 -6.50958 69.0262 -13.4892 26.746C-20.4687 -15.5343 109.739 -72.2377 277.337 -99.9046C444.935 -127.572 586.458 -115.725 593.438 -73.4448Z" fill="#1194FF"/>
<ellipse cx="636.732" cy="28.2111" rx="241.571" ry="84.3435" transform="rotate(11.6063 636.732 28.2111)" fill="#5AE9FE" fill-opacity="0.59"/>
<path d="M583.201 166.326C583.472 165.819 583.808 165.351 584.201 164.936L588.682 160.32C589.142 159.831 589.685 159.433 590.282 159.146C591.221 158.698 592.263 158.552 593.27 158.726C594.277 158.901 595.202 159.388 595.925 160.123C597.458 161.668 600.264 164.488 605.325 169.611C615.006 179.42 632.992 195.832 641.128 202.823C641.538 203.173 641.871 203.609 642.107 204.103C642.342 204.598 642.475 205.14 642.496 205.695C642.517 206.25 642.426 206.806 642.23 207.328C642.033 207.85 641.735 208.327 641.353 208.728L631.822 218.786C631.438 219.188 630.98 219.505 630.476 219.718C629.973 219.931 629.434 220.035 628.895 220.023C628.355 220.011 627.827 219.883 627.342 219.649C626.858 219.414 626.428 219.077 626.079 218.659C619.04 210.151 602.89 191.69 593.321 182.004C588.406 177.052 585.651 174.207 584.091 172.636C583.318 171.83 582.816 170.787 582.656 169.654C582.496 168.521 582.687 167.357 583.201 166.326V166.326Z" stroke="#02265C" stroke-width="7" stroke-linecap="round" stroke-linejoin="round"/>
<path d="M534.494 155.6L542.878 146.925C543.006 146.792 543.158 146.686 543.326 146.614C543.493 146.543 543.672 146.507 543.851 146.51C544.031 146.503 544.209 146.534 544.375 146.6C544.541 146.666 544.692 146.765 544.82 146.892C545.117 147.199 545.48 147.429 545.881 147.564C546.282 147.7 546.71 147.738 547.132 147.674C548.22 147.533 549.38 147.165 550.132 146.404C551.843 144.653 549.902 141.297 551.411 139.103C553.135 136.701 555.022 134.428 557.058 132.301C558.783 130.515 565.562 123.757 576.937 118.781C580.567 117.186 584.447 116.333 588.359 116.27C594.754 116.162 599.652 119.031 601.434 120.696C602.852 122.007 604.323 124.103 604.323 124.103C603.468 123.794 602.593 123.541 601.705 123.344C599.853 122.964 597.95 122.87 596.058 123.065C592.279 123.453 587.716 125.362 585.262 127.386C581.306 130.716 579.585 135.11 579.283 140.747C579.061 144.94 582.916 150.164 586.579 154.415C586.901 154.789 587.069 155.28 587.047 155.786C587.026 156.293 586.817 156.776 586.464 157.135L581.273 162.551C580.912 162.924 580.427 163.14 579.922 163.153C579.418 163.167 578.932 162.976 578.569 162.622C575.211 159.287 571.072 155.602 568.72 154.138C566.369 152.674 564.466 152.282 563.552 152.195C561.756 152.045 559.945 152.481 558.375 153.441C558.098 153.607 557.845 153.813 557.624 154.051C556.045 155.725 556.121 158.414 557.705 160.009L558.187 160.475C558.313 160.601 558.412 160.753 558.479 160.921C558.547 161.089 558.581 161.269 558.579 161.452C558.578 161.636 558.542 161.818 558.472 161.988C558.403 162.158 558.301 162.313 558.174 162.443L549.79 171.119C549.662 171.251 549.509 171.356 549.342 171.427C549.175 171.498 548.996 171.533 548.817 171.532C548.456 171.543 548.108 171.406 547.849 171.151L534.481 157.609C534.234 157.342 534.099 156.985 534.101 156.611C534.104 156.238 534.244 155.876 534.494 155.6Z" stroke="#02265C" stroke-width="7" stroke-linecap="round" stroke-linejoin="round"/>
<path d="M143.301 704.845C142.462 706.482 143.163 708.451 144.866 709.245L148.417 710.899C150.123 711.693 152.183 711.01 153.022 709.373C153.714 708.024 155.271 707.314 156.834 707.429C157.082 707.446 157.331 707.458 157.576 707.468C159.142 707.532 160.592 708.41 161.098 709.829C161.392 710.654 162.016 711.331 162.834 711.712C163.651 712.093 164.595 712.146 165.458 711.86L169.209 710.617C170.072 710.33 170.782 709.728 171.185 708.943C171.588 708.157 171.65 707.253 171.357 706.428V706.428C170.851 705.006 171.435 703.456 172.636 702.476C172.824 702.322 173.011 702.165 173.194 702.005C174.354 700.986 176.034 700.623 177.438 701.277C179.142 702.071 181.202 701.388 182.041 699.751L183.792 696.337C184.631 694.701 183.93 692.731 182.227 691.938C180.822 691.283 180.091 689.797 180.221 688.299C180.24 688.062 180.254 687.823 180.268 687.589C180.343 686.088 181.268 684.694 182.753 684.2C183.616 683.913 184.327 683.311 184.729 682.526C185.132 681.74 185.194 680.836 184.901 680.011L183.626 676.426C183.332 675.601 182.708 674.924 181.89 674.543C181.073 674.162 180.129 674.109 179.266 674.395C177.778 674.888 176.164 674.338 175.147 673.197C174.99 673.016 174.825 672.838 174.659 672.663C173.603 671.557 173.234 669.951 173.926 668.601C174.766 666.965 174.065 664.995 172.362 664.202L168.809 662.547C167.105 661.753 165.045 662.436 164.205 664.073C163.513 665.423 161.957 666.132 160.392 666.02C160.146 666 159.898 665.986 159.653 665.976C158.085 665.917 156.636 665.036 156.132 663.618C155.987 663.21 155.759 662.833 155.461 662.51C155.163 662.186 154.801 661.923 154.396 661.734C153.991 661.545 153.55 661.435 153.1 661.41C152.649 661.384 152.197 661.444 151.77 661.586L148.019 662.83C147.156 663.116 146.445 663.718 146.043 664.504C145.64 665.289 145.578 666.194 145.871 667.019V667.019C146.377 668.44 145.793 669.99 144.595 670.971C144.405 671.123 144.219 671.282 144.034 671.442C142.874 672.46 141.194 672.823 139.79 672.169C138.086 671.375 136.026 672.059 135.186 673.695L133.437 677.107C132.598 678.743 133.299 680.713 135.002 681.506C136.407 682.161 137.138 683.647 137.011 685.146C136.99 685.383 136.975 685.619 136.963 685.856C136.886 687.356 135.961 688.75 134.476 689.245C133.613 689.531 132.902 690.133 132.5 690.919C132.097 691.704 132.035 692.609 132.328 693.433L133.603 697.018C133.897 697.843 134.521 698.52 135.339 698.901C136.156 699.282 137.1 699.335 137.963 699.049V699.049C139.451 698.556 141.065 699.106 142.082 700.248C142.241 700.428 142.404 700.606 142.57 700.781C143.625 701.889 143.993 703.495 143.303 704.843L143.301 704.845Z" stroke="#02265C" stroke-width="4"/>
<path d="M148.892 682.195C150.162 679.718 152.404 677.82 155.125 676.917C157.846 676.015 160.823 676.183 163.401 677.384C165.979 678.585 167.947 680.721 168.872 683.321C169.797 685.922 169.604 688.775 168.334 691.252C167.064 693.729 164.822 695.627 162.101 696.53C159.38 697.432 156.402 697.264 153.824 696.063C151.246 694.862 149.278 692.726 148.353 690.125C147.428 687.525 147.622 684.672 148.892 682.195V682.195Z" stroke="#02265C" stroke-width="4"/>
<path d="M29.5254 586.678C28.1 586.641 26.8872 587.736 26.8159 589.124L26.6672 592.016C26.5958 593.406 27.6929 594.56 29.1184 594.597C30.2937 594.627 31.262 595.437 31.6382 596.515C31.6987 596.685 31.7633 596.855 31.828 597.022C32.2417 598.085 32.0351 599.33 31.1617 600.121C30.654 600.579 30.3495 601.211 30.3153 601.877C30.2811 602.543 30.5199 603.189 30.9792 603.672L32.9765 605.773C33.4362 606.256 34.0786 606.538 34.7627 606.555C35.4467 606.573 36.1164 606.326 36.6245 605.867V605.867C37.4999 605.077 38.7881 604.972 39.8462 605.459C40.0128 605.535 40.1807 605.609 40.35 605.68C41.4244 606.128 42.1792 607.13 42.1204 608.275C42.0491 609.662 43.1462 610.817 44.5717 610.853L47.5445 610.93C48.97 610.967 50.1828 609.872 50.2541 608.484C50.3129 607.34 51.1686 606.379 52.2862 605.988C52.4625 605.925 52.639 605.858 52.8113 605.793C53.9146 605.364 55.1906 605.535 55.9826 606.366C56.4423 606.85 57.0848 607.131 57.7688 607.149C58.4529 607.166 59.1225 606.919 59.6306 606.46L61.8384 604.468C62.3461 604.009 62.6506 603.377 62.6848 602.711C62.719 602.045 62.4803 601.4 62.0209 600.916C61.229 600.083 61.1507 598.832 61.6746 597.791C61.7583 597.629 61.8381 597.462 61.9159 597.296C62.4018 596.24 63.4507 595.482 64.626 595.512C66.0514 595.549 67.2642 594.454 67.3356 593.067L67.4843 590.172C67.5557 588.785 66.4585 587.63 65.0331 587.594C63.8577 587.563 62.8895 586.753 62.5112 585.675C62.4527 585.505 62.3902 585.335 62.3255 585.169C61.9077 584.106 62.1163 582.86 62.9896 582.072C63.2413 581.845 63.4457 581.573 63.5911 581.271C63.7366 580.97 63.8201 580.645 63.8371 580.315C63.8541 579.985 63.8041 579.656 63.69 579.348C63.5759 579.04 63.4 578.758 63.1723 578.518L61.1749 576.417C60.7153 575.934 60.0728 575.653 59.3887 575.635C58.7047 575.617 58.035 575.865 57.527 576.323V576.323C56.6515 577.113 55.3634 577.219 54.3051 576.734C54.1401 576.656 53.9708 576.582 53.8014 576.511C52.727 576.063 51.9722 575.06 52.031 573.916C52.1024 572.528 51.0052 571.374 49.5798 571.337L46.6089 571.26C45.1835 571.224 43.9707 572.318 43.8994 573.706C43.8406 574.85 42.9848 575.811 41.8672 576.205C41.691 576.267 41.5159 576.332 41.342 576.399C40.2389 576.827 38.9629 576.655 38.1708 575.824C37.7111 575.341 37.0687 575.06 36.3846 575.042C35.7006 575.024 35.0309 575.272 34.5229 575.73L32.3151 577.723C31.8073 578.181 31.5029 578.813 31.4687 579.479C31.4344 580.145 31.6732 580.791 32.1325 581.274V581.274C32.9245 582.107 33.0027 583.358 32.4789 584.399C32.3955 584.563 32.3151 584.728 32.2376 584.895C31.7496 585.951 30.7007 586.708 29.5275 586.678L29.5254 586.678Z" stroke="#02265C" stroke-width="4"/>
<path d="M47.4828 583.178C49.64 583.233 51.6659 584.121 53.1149 585.645C54.564 587.17 55.3174 589.206 55.2094 591.306C55.1014 593.406 54.141 595.398 52.5393 596.844C50.9376 598.29 48.8259 599.07 46.6687 599.015C44.5115 598.959 42.4856 598.071 41.0365 596.547C39.5875 595.023 38.8341 592.986 38.9421 590.886C39.05 588.786 40.0105 586.794 41.6122 585.348C43.2139 583.903 45.3256 583.122 47.4828 583.178V583.178Z" stroke="#02265C" stroke-width="4"/>
<path d="M54.1557 677.389C52.3445 679.459 52.6283 682.537 54.7895 684.266L59.294 687.868C61.4584 689.599 64.6771 689.322 66.4882 687.252C67.9816 685.545 70.484 685.057 72.6935 685.76C73.0434 685.869 73.3985 685.973 73.7474 686.071C75.9788 686.701 77.7434 688.464 77.9508 690.682C78.0701 691.971 78.7197 693.161 79.7569 693.991C80.7941 694.82 82.134 695.221 83.482 695.106L89.3414 694.602C90.6894 694.486 91.9348 693.862 92.8039 692.869C93.6731 691.875 94.0948 690.593 93.9765 689.304V689.304C93.7717 687.083 95.1835 685.05 97.2733 684.051C97.602 683.893 97.9279 683.731 98.2507 683.562C100.297 682.494 102.849 682.547 104.631 683.972C106.793 685.701 110.011 685.424 111.822 683.354L115.6 679.037C117.411 676.967 117.127 673.889 114.966 672.16C113.184 670.735 112.678 668.343 113.417 666.228C113.531 665.893 113.64 665.554 113.747 665.222C114.406 663.085 116.252 661.394 118.573 661.191C119.921 661.075 121.166 660.452 122.035 659.458C122.904 658.465 123.326 657.183 123.208 655.894L122.691 650.291C122.572 649.002 121.922 647.812 120.885 646.982C119.848 646.153 118.508 645.752 117.16 645.867C114.837 646.067 112.713 644.72 111.67 642.726C111.51 642.412 111.338 642.1 111.164 641.79C110.05 639.834 110.11 637.393 111.604 635.686C113.415 633.616 113.131 630.539 110.97 628.81L106.462 625.205C104.301 623.477 101.082 623.753 99.2711 625.823C97.7778 627.53 95.2754 628.019 93.0632 627.319C92.7159 627.206 92.3634 627.1 92.0145 627.002C89.778 626.378 88.0159 624.612 87.8116 622.396C87.7529 621.757 87.5631 621.136 87.2532 620.568C86.9432 620 86.5192 619.496 86.0053 619.085C85.4913 618.674 84.8976 618.364 84.2579 618.172C83.6183 617.981 82.9453 617.912 82.2774 617.97L76.4179 618.474C75.07 618.59 73.8246 619.213 72.9554 620.207C72.0863 621.2 71.6646 622.482 71.7829 623.771V623.771C71.9877 625.993 70.5758 628.026 68.4891 629.028C68.1606 629.181 67.8331 629.346 67.5086 629.513C65.4624 630.582 62.9101 630.529 61.128 629.103C58.9667 627.375 55.748 627.652 53.9369 629.722L50.1622 634.036C48.3511 636.106 48.6348 639.184 50.7961 640.913C52.5781 642.338 53.0842 644.73 52.3484 646.847C52.2322 647.181 52.1222 647.516 52.0184 647.853C51.3556 649.988 49.5096 651.679 47.1893 651.881C45.8413 651.998 44.5959 652.621 43.7268 653.614C42.8576 654.608 42.4359 655.89 42.5542 657.179L43.0707 662.782C43.19 664.071 43.8396 665.261 44.8768 666.09C45.914 666.92 47.2538 667.321 48.6019 667.206V667.206C50.9252 667.006 53.0485 668.352 54.0919 670.346C54.2549 670.661 54.4237 670.974 54.5981 671.283C55.7096 673.241 55.649 675.682 54.1582 677.386L54.1557 677.389Z" stroke="#02265C" stroke-width="5"/>
<path d="M70.5474 646.674C73.2883 643.542 77.2162 641.576 81.4671 641.211C85.7181 640.845 89.9437 642.109 93.2146 644.725C96.4854 647.341 98.5334 651.094 98.9081 655.159C99.2828 659.224 97.9535 663.267 95.2126 666.4C92.4717 669.533 88.5438 671.498 84.2928 671.864C80.0419 672.229 75.8162 670.965 72.5454 668.349C69.2746 665.734 67.2266 661.981 66.8519 657.916C66.4772 653.851 67.8065 649.807 70.5474 646.674V646.674Z" stroke="#02265C" stroke-width="5"/>
</svg>
