<svg width="36" height="36" viewBox="0 0 36 36" fill="none" xmlns="http://www.w3.org/2000/svg">
<path d="M18 0.5625C8.05645 0.5625 0 8.36719 0 18C0 27.6328 8.05645 35.4375 18 35.4375C27.9435 35.4375 36 27.6328 36 18C36 8.36719 27.9435 0.5625 18 0.5625ZM26.8403 12.5086L23.8863 25.9945C23.6685 26.9508 23.0806 27.1828 22.2605 26.7328L17.7605 23.5195L15.5903 25.5445C15.3508 25.7766 15.1476 25.9734 14.6831 25.9734L15.0024 21.5367L23.3419 14.2383C23.7048 13.9289 23.2621 13.7531 22.7831 14.0625L12.4766 20.3484L8.03468 19.0055C7.06935 18.7102 7.04758 18.0703 8.2379 17.6203L25.5919 11.1375C26.3976 10.8562 27.1016 11.3273 26.8403 12.5086Z" fill="#02265C"/>
</svg>
