<svg width="766" height="750" viewBox="0 0 766 750" fill="none" xmlns="http://www.w3.org/2000/svg">
<path d="M146.911 254.885C146.649 254.393 146.322 253.938 145.941 253.535L141.588 249.051C141.14 248.576 140.613 248.19 140.034 247.911C139.121 247.476 138.109 247.334 137.131 247.503C136.153 247.673 135.254 248.145 134.552 248.86C133.063 250.361 130.338 253.1 125.421 258.076C116.018 267.605 98.546 283.547 90.6427 290.338C90.2445 290.678 89.9208 291.101 89.6921 291.581C89.4634 292.062 89.3347 292.588 89.3142 293.127C89.2936 293.666 89.3817 294.207 89.5727 294.714C89.7637 295.221 90.0536 295.684 90.424 296.074L99.6823 305.844C100.055 306.234 100.5 306.542 100.99 306.749C101.479 306.956 102.002 307.057 102.526 307.045C103.05 307.033 103.563 306.91 104.034 306.682C104.505 306.454 104.922 306.127 105.261 305.721C112.098 297.456 127.786 279.523 137.082 270.115C141.856 265.304 144.532 262.54 146.047 261.015C146.798 260.232 147.286 259.218 147.441 258.118C147.596 257.017 147.411 255.886 146.911 254.885V254.885Z" stroke="#02265C" stroke-width="7" stroke-linecap="round" stroke-linejoin="round"/>
<path d="M194.224 244.467L186.081 236.04C185.956 235.91 185.808 235.807 185.646 235.738C185.483 235.669 185.309 235.634 185.135 235.636C184.961 235.63 184.788 235.66 184.627 235.724C184.465 235.788 184.318 235.884 184.195 236.008C183.906 236.306 183.553 236.529 183.163 236.661C182.774 236.792 182.358 236.829 181.948 236.767C180.892 236.63 179.765 236.272 179.034 235.533C177.372 233.833 179.258 230.573 177.791 228.442C176.118 226.108 174.285 223.9 172.307 221.835C170.631 220.1 164.046 213.535 152.996 208.701C149.47 207.152 145.701 206.323 141.901 206.262C135.689 206.157 130.932 208.944 129.201 210.561C127.823 211.835 126.394 213.871 126.394 213.871C127.225 213.571 128.074 213.325 128.937 213.134C130.737 212.765 132.585 212.673 134.423 212.863C138.093 213.239 142.526 215.094 144.91 217.06C148.753 220.294 150.424 224.563 150.718 230.039C150.933 234.112 147.189 239.186 143.631 243.315C143.318 243.678 143.155 244.155 143.176 244.647C143.196 245.139 143.399 245.609 143.743 245.958L148.784 251.219C149.136 251.581 149.606 251.791 150.097 251.803C150.587 251.816 151.058 251.631 151.411 251.287C154.673 248.048 158.694 244.468 160.978 243.046C163.262 241.624 165.11 241.243 165.998 241.158C167.743 241.013 169.502 241.436 171.027 242.369C171.296 242.531 171.542 242.73 171.757 242.962C173.291 244.587 173.216 247.2 171.678 248.749L171.209 249.202C171.088 249.325 170.991 249.472 170.926 249.635C170.861 249.798 170.827 249.973 170.829 250.151C170.83 250.329 170.865 250.506 170.933 250.671C171 250.836 171.099 250.987 171.222 251.114L179.366 259.541C179.491 259.669 179.639 259.771 179.801 259.84C179.964 259.909 180.137 259.944 180.312 259.942C180.663 259.953 181.001 259.82 181.252 259.572L194.237 246.418C194.477 246.158 194.609 245.811 194.606 245.448C194.604 245.086 194.467 244.734 194.224 244.467Z" stroke="#02265C" stroke-width="7" stroke-linecap="round" stroke-linejoin="round"/>
<path d="M567.254 675.849C565.587 675.072 563.646 675.846 562.917 677.578L561.397 681.189C560.667 682.923 561.427 684.956 563.094 685.734C564.469 686.374 565.236 687.903 565.18 689.47C565.172 689.717 565.169 689.967 565.169 690.212C565.163 691.78 564.341 693.261 562.942 693.821C562.129 694.145 561.475 694.794 561.125 695.626C560.776 696.457 560.758 697.402 561.076 698.254L562.459 701.955C562.778 702.807 563.406 703.494 564.206 703.867C565.006 704.24 565.912 704.268 566.726 703.944V703.944C568.127 703.386 569.698 703.911 570.722 705.074C570.883 705.257 571.047 705.437 571.215 705.614C572.276 706.736 572.702 708.4 572.101 709.828C571.371 711.561 572.131 713.594 573.799 714.371L577.275 715.992C578.943 716.769 580.884 715.995 581.613 714.263C582.214 712.835 583.672 712.048 585.174 712.122C585.412 712.132 585.652 712.137 585.885 712.143C587.388 712.161 588.816 713.033 589.366 714.498C589.684 715.35 590.313 716.038 591.113 716.411C591.913 716.784 592.819 716.811 593.632 716.487L597.167 715.079C597.98 714.754 598.633 714.105 598.983 713.274C599.333 712.443 599.351 711.497 599.033 710.646C598.484 709.178 598.973 707.544 600.076 706.485C600.25 706.321 600.422 706.15 600.591 705.977C601.656 704.881 603.247 704.452 604.622 705.093C606.289 705.87 608.23 705.096 608.959 703.364L610.48 699.751C611.209 698.019 610.449 695.986 608.782 695.209C607.407 694.568 606.64 693.039 606.694 691.471C606.704 691.225 606.709 690.976 606.71 690.731C606.71 689.162 607.535 687.681 608.933 687.124C609.336 686.963 609.704 686.721 610.016 686.411C610.328 686.102 610.578 685.73 610.751 685.318C610.925 684.906 611.018 684.462 611.027 684.011C611.035 683.56 610.958 683.11 610.8 682.688L609.417 678.987C609.098 678.136 608.47 677.448 607.67 677.075C606.87 676.702 605.964 676.674 605.15 676.998V676.998C603.749 677.557 602.178 677.031 601.153 675.871C600.994 675.687 600.828 675.506 600.661 675.328C599.6 674.207 599.174 672.542 599.775 671.114C600.505 669.382 599.745 667.348 598.077 666.571L594.603 664.951C592.936 664.174 590.994 664.948 590.265 666.68C589.664 668.109 588.206 668.895 586.703 668.824C586.466 668.813 586.229 668.806 585.992 668.803C584.49 668.783 583.062 667.91 582.513 666.445C582.194 665.593 581.566 664.906 580.766 664.533C579.966 664.16 579.059 664.132 578.246 664.456L574.712 665.865C573.899 666.189 573.245 666.838 572.895 667.669C572.546 668.501 572.528 669.446 572.846 670.298V670.298C573.394 671.765 572.905 673.4 571.803 674.458C571.628 674.624 571.456 674.794 571.288 674.966C570.22 676.062 568.629 676.49 567.257 675.851L567.254 675.849Z" stroke="#02265C" stroke-width="4"/>
<path d="M590.098 680.586C592.621 681.762 594.602 683.931 595.606 686.616C596.61 689.302 596.554 692.283 595.45 694.904C594.347 697.526 592.287 699.573 589.722 700.595C587.158 701.617 584.3 701.53 581.777 700.354C579.254 699.178 577.273 697.009 576.269 694.323C575.266 691.638 575.322 688.657 576.425 686.035C577.528 683.414 579.589 681.367 582.153 680.345C584.717 679.323 587.575 679.41 590.098 680.586V680.586Z" stroke="#02265C" stroke-width="4"/>
<path d="M681.068 557.719C681.051 556.293 679.912 555.122 678.522 555.103L675.627 555.063C674.235 555.044 673.123 556.184 673.14 557.609C673.154 558.785 672.381 559.783 671.317 560.199C671.15 560.266 670.982 560.337 670.818 560.408C669.771 560.861 668.519 560.702 667.697 559.859C667.219 559.368 666.577 559.088 665.91 559.079C665.243 559.069 664.607 559.332 664.141 559.809L662.116 561.884C661.65 562.362 661.393 563.014 661.401 563.698C661.409 564.383 661.682 565.043 662.159 565.533V565.533C662.981 566.378 663.135 567.662 662.688 568.737C662.618 568.907 662.55 569.077 662.486 569.249C662.079 570.34 661.105 571.131 659.959 571.116C658.57 571.096 657.458 572.236 657.475 573.662L657.51 576.636C657.526 578.061 658.666 579.232 660.055 579.251C661.201 579.267 662.193 580.086 662.626 581.188C662.696 581.362 662.769 581.536 662.841 581.706C663.311 582.792 663.188 584.074 662.387 584.896C661.921 585.374 661.664 586.026 661.672 586.711C661.68 587.395 661.953 588.055 662.43 588.545L664.504 590.677C664.981 591.167 665.624 591.447 666.291 591.457C666.957 591.466 667.594 591.203 668.06 590.726C668.862 589.903 670.11 589.778 671.17 590.263C671.335 590.34 671.504 590.414 671.674 590.485C672.747 590.931 673.544 591.951 673.558 593.126C673.574 594.552 674.714 595.723 676.103 595.742L679.001 595.782C680.39 595.801 681.503 594.662 681.486 593.236C681.472 592.06 682.245 591.062 683.308 590.644C683.476 590.579 683.644 590.51 683.807 590.439C684.854 589.982 686.107 590.144 686.927 590.987C687.163 591.23 687.443 591.424 687.75 591.558C688.057 591.692 688.384 591.763 688.715 591.768C689.045 591.772 689.372 591.71 689.675 591.584C689.979 591.459 690.254 591.272 690.485 591.036L692.51 588.961C692.975 588.484 693.232 587.831 693.224 587.147C693.216 586.463 692.944 585.803 692.467 585.312V585.312C691.644 584.467 691.49 583.184 691.936 582.108C692.007 581.94 692.074 581.768 692.14 581.596C692.547 580.506 693.521 579.714 694.666 579.73C696.056 579.749 697.168 578.609 697.151 577.183L697.116 574.212C697.099 572.786 695.96 571.615 694.571 571.596C693.425 571.58 692.432 570.761 691.997 569.659C691.929 569.485 691.857 569.313 691.783 569.141C691.314 568.055 691.438 566.774 692.239 565.951C692.705 565.473 692.962 564.821 692.954 564.137C692.946 563.452 692.673 562.792 692.196 562.302L690.122 560.171C689.645 559.68 689.002 559.4 688.335 559.391C687.668 559.381 687.032 559.644 686.566 560.121V560.121C685.763 560.944 684.516 561.069 683.456 560.585C683.289 560.508 683.121 560.433 682.952 560.362C681.879 559.914 681.082 558.895 681.068 557.721L681.068 557.719Z" stroke="#02265C" stroke-width="4"/>
<path d="M685.24 575.532C685.266 577.69 684.455 579.748 682.986 581.253C681.517 582.758 679.51 583.588 677.407 583.558C675.305 583.529 673.278 582.644 671.773 581.098C670.268 579.552 669.409 577.471 669.384 575.313C669.358 573.155 670.169 571.097 671.638 569.592C673.107 568.087 675.114 567.258 677.216 567.287C679.319 567.316 681.346 568.201 682.851 569.747C684.355 571.294 685.215 573.374 685.24 575.532V575.532Z" stroke="#02265C" stroke-width="4"/>
<path d="M591.345 585.736C589.209 584.004 586.143 584.403 584.497 586.628L581.066 591.264C579.418 593.492 579.815 596.698 581.952 598.43C583.714 599.858 584.295 602.341 583.676 604.575C583.58 604.929 583.49 605.287 583.405 605.64C582.859 607.893 581.164 609.723 578.954 610.013C577.671 610.181 576.506 610.875 575.716 611.942C574.926 613.01 574.576 614.364 574.742 615.707L575.465 621.543C575.632 622.886 576.301 624.107 577.327 624.938C578.352 625.769 579.649 626.143 580.933 625.976V625.976C583.145 625.688 585.23 627.022 586.307 629.073C586.476 629.396 586.651 629.715 586.831 630.032C587.976 632.036 588.018 634.589 586.661 636.423C585.015 638.648 585.412 641.854 587.549 643.586L592.005 647.199C594.141 648.931 597.206 648.532 598.853 646.307C600.21 644.473 602.582 643.877 604.722 644.536C605.061 644.639 605.405 644.734 605.74 644.828C607.901 645.407 609.66 647.189 609.949 649.5C610.116 650.842 610.786 652.064 611.811 652.895C612.836 653.726 614.133 654.099 615.417 653.933L620.997 653.206C622.28 653.039 623.445 652.345 624.235 651.277C625.025 650.21 625.375 648.856 625.209 647.513C624.923 645.199 626.189 643.027 628.142 641.909C628.45 641.737 628.756 641.554 629.059 641.368C630.971 640.181 633.413 640.15 635.175 641.579C637.311 643.311 640.376 642.912 642.022 640.687L645.456 636.047C647.102 633.823 646.704 630.617 644.568 628.884C642.806 627.456 642.224 624.974 642.841 622.737C642.94 622.386 643.033 622.03 643.118 621.677C643.658 619.419 645.356 617.592 647.563 617.304C648.199 617.222 648.813 617.009 649.369 616.678C649.925 616.347 650.412 615.904 650.804 615.375C651.195 614.846 651.483 614.241 651.65 613.595C651.817 612.948 651.861 612.273 651.778 611.608L651.055 605.772C650.888 604.429 650.218 603.208 649.193 602.377C648.167 601.545 646.87 601.172 645.587 601.339V601.339C643.374 601.627 641.29 600.292 640.211 598.244C640.045 597.922 639.868 597.601 639.689 597.283C638.544 595.278 638.501 592.726 639.859 590.891C641.505 588.667 641.107 585.461 638.971 583.728L634.518 580.118C632.381 578.386 629.316 578.785 627.67 581.01C626.313 582.844 623.941 583.44 621.798 582.784C621.46 582.68 621.121 582.583 620.78 582.492C618.622 581.91 616.863 580.128 616.574 577.817C616.407 576.475 615.737 575.253 614.712 574.422C613.686 573.591 612.389 573.218 611.106 573.384L605.526 574.111C604.243 574.278 603.078 574.972 602.288 576.04C601.498 577.107 601.147 578.461 601.313 579.804V579.804C601.6 582.118 600.334 584.29 598.381 585.408C598.072 585.583 597.766 585.763 597.463 585.949C595.548 587.133 593.107 587.164 591.348 585.738L591.345 585.736Z" stroke="#02265C" stroke-width="5"/>
<path d="M622.654 600.964C625.887 603.585 627.998 607.436 628.523 611.671C629.048 615.905 627.943 620.175 625.452 623.542C622.961 626.908 619.287 629.096 615.239 629.623C611.191 630.15 607.101 628.973 603.867 626.352C600.634 623.73 598.523 619.879 597.998 615.645C597.473 611.41 598.578 607.14 601.069 603.774C603.56 600.407 607.234 598.219 611.282 597.692C615.33 597.165 619.42 598.342 622.654 600.964V600.964Z" stroke="#02265C" stroke-width="5"/>
<path d="M588.438 -51.4447C595.418 -9.16444 285.364 112.513 117.765 140.18C-49.8328 167.847 -21.5202 54.2803 -28.4998 12C-35.4794 -30.2803 104.739 -50.2376 272.337 -77.9045C439.935 -105.571 581.459 -93.725 588.438 -51.4447Z" fill="#1194FF"/>
<path d="M381.494 734.868C413.718 798.036 278.209 816.533 204.93 853.915C131.651 891.297 -2.72192 878.827 -34.9459 815.659C-67.1699 752.491 -81.9025 671.492 -8.62326 634.11C64.656 596.727 349.27 671.7 381.494 734.868Z" fill="#3CC6FE"/>
<path d="M727.818 39C716.926 92.0328 629.226 161.721 537.085 133.227C430.712 111.379 331.998 36.0347 342.891 -16.9982C353.783 -70.031 559.945 -186.347 666.318 -164.5C772.691 -142.653 738.71 -14.0328 727.818 39Z" fill="#5AE9FE" fill-opacity="0.59"/>
</svg>
