<svg width="32" height="31" viewBox="0 0 32 31" fill="none" xmlns="http://www.w3.org/2000/svg">
<path d="M31.8045 8.35938C31.6055 8.07812 31.3385 7.9375 31.0035 7.9375H9.67485L8.04143 2.40625C7.89484 1.90625 7.6959 1.47917 7.44461 1.125C7.19331 0.770833 6.92631 0.520833 6.6436 0.375C6.3609 0.229167 6.11484 0.130208 5.90543 0.078125C5.69601 0.0260417 5.4866 0 5.27719 0H0.973767C0.701531 0 0.471178 0.09375 0.282707 0.28125C0.0942355 0.46875 0 0.708333 0 1C0 1.16667 0.0418825 1.32812 0.125647 1.48438C0.209412 1.64062 0.329824 1.76042 0.486884 1.84375C0.643943 1.92708 0.806237 1.96875 0.973767 1.96875H5.27719C5.36095 1.96875 5.43948 1.97917 5.51278 2C5.58607 2.02083 5.68554 2.10938 5.81119 2.26562C5.93684 2.42188 6.04154 2.65625 6.12531 2.96875L11.6852 23.2812C11.7271 23.4062 11.7951 23.526 11.8894 23.6406C11.9836 23.7552 12.0936 23.8438 12.2192 23.9062C12.3449 23.9688 12.481 24 12.6276 24H26.1975C26.4069 24 26.6006 23.9375 26.7786 23.8125C26.9566 23.6875 27.077 23.5312 27.1398 23.3438L31.9458 9.28125C32.0505 8.94792 32.0034 8.64062 31.8045 8.35938ZM25.5064 22H13.4129L10.2088 9.9375H29.5585L25.5064 22ZM23.5275 26C22.8364 26 22.2448 26.2448 21.7527 26.7344C21.2606 27.224 21.0145 27.8125 21.0145 28.5C21.0145 29.1875 21.2606 29.776 21.7527 30.2656C22.2448 30.7552 22.8364 31 23.5275 31C24.2185 31 24.8101 30.7552 25.3022 30.2656C25.7944 29.776 26.0404 29.1875 26.0404 28.5C26.0404 27.8125 25.7944 27.224 25.3022 26.7344C24.8101 26.2448 24.2185 26 23.5275 26ZM14.4809 26C14.0202 26 13.5961 26.1146 13.2087 26.3438C12.8213 26.5729 12.5176 26.875 12.2977 27.25C12.0779 27.625 11.9679 28.0417 11.9679 28.5C11.9679 29.1875 12.214 29.776 12.7061 30.2656C13.1982 30.7552 13.7898 31 14.4809 31C15.1719 31 15.7635 30.7552 16.2556 30.2656C16.7477 29.776 16.9938 29.1875 16.9938 28.5C16.9938 28.3333 16.9781 28.1667 16.9467 28C16.9153 27.8333 16.8682 27.6771 16.8053 27.5312C16.7425 27.3854 16.664 27.2448 16.5697 27.1094C16.4755 26.974 16.3708 26.849 16.2556 26.7344C16.1405 26.6198 16.0148 26.5156 15.8787 26.4219C15.7426 26.3281 15.6012 26.25 15.4546 26.1875C15.308 26.125 15.151 26.0781 14.9834 26.0469C14.8159 26.0156 14.6484 26 14.4809 26Z" fill="#02265C"/>
</svg>
