<svg width="1440" height="1590" viewBox="0 0 1440 1590" fill="none" xmlns="http://www.w3.org/2000/svg">
<ellipse cx="1489" cy="864" rx="102" ry="228" fill="#1194FF"/>
<path d="M1591 743.579C1591 883.307 1556.08 996.579 1513 996.579C1469.92 996.579 1393 580.307 1393 440.579C1393 300.851 1481.92 478.579 1525 478.579C1568.08 478.579 1591 603.851 1591 743.579Z" fill="#6DDCFE"/>
<path d="M-135 1336.83C-135 1476.65 -100.96 1590 -58.9697 1590C-16.9793 1590 58 1173.44 58 1033.62C58 893.791 -28.6763 1071.64 -70.6667 1071.64C-112.657 1071.64 -135 1197 -135 1336.83Z" fill="#3CC6FE"/>
<path d="M56.4017 290C74.4017 411 -65.5576 530 -92.0672 530C-118.577 530 -29.5983 385.545 -29.5983 290C-29.5983 194.455 -97.1082 0 -70.5985 0C-44.0888 0 56.4017 194.455 56.4017 290Z" fill="#1194FF"/>
<path d="M56 278.439C74 391.591 -19.4117 783.592 -51.9965 783.592C-84.5813 783.592 -104 477.496 -104 367.591C-104 257.687 -57.5823 391.591 -24.9975 391.591C7.58733 391.591 56 168.535 56 278.439Z" fill="#6DDCFE"/>
</svg>
