<svg width="1440" height="1050" viewBox="0 0 1440 1050" fill="none" xmlns="http://www.w3.org/2000/svg">
<ellipse cx="1442" cy="471.579" rx="102" ry="228" fill="#1194FF"/>
<path d="M1512 356.579C1512 496.307 1477.08 609.579 1434 609.579C1390.92 609.579 1314 193.307 1314 53.5787C1314 -86.1493 1402.92 91.5785 1446 91.5785C1489.08 91.5785 1512 216.851 1512 356.579Z" fill="#6DDCFE"/>
<ellipse cx="-15" cy="821.579" rx="102" ry="228" fill="#1194FF"/>
<path d="M55 706.579C55 846.307 20.0782 959.579 -23 959.579C-66.0782 959.579 -143 543.307 -143 403.579C-143 263.851 -54.0782 441.579 -11 441.579C32.0782 441.579 55 566.851 55 706.579Z" fill="#6DDCFE"/>
</svg>
