<svg width="1440" height="750" viewBox="0 0 1440 750" fill="none" xmlns="http://www.w3.org/2000/svg">
<path d="M1696 95.9222C1696 221.067 919.074 851.782 -296.81 623.742C-761.315 623.742 -186.079 108.804 -186.079 -16.3399C-186.079 -141.484 56.4668 -132.874 520.972 -132.874C985.477 -132.874 1696 -29.2222 1696 95.9222Z" fill="#1194FF"/>
<path d="M1738.47 378.984C1738.47 482.599 1956.58 782.478 1458.33 683.103C1238.41 683.103 802 99.6661 802 -3.94888C802 -107.564 1284.43 -3.9489 1504.35 -3.9489C1724.27 -3.9489 1738.47 275.369 1738.47 378.984Z" fill="#5AE9FE" fill-opacity="0.59"/>
<g clip-path="url(#clip0)">
<path d="M102.172 631.024C101.41 631.015 100.653 631.109 99.9231 631.3L91.7317 633.56C90.8728 633.783 90.0693 634.158 89.3624 634.666C88.2542 635.467 87.4353 636.577 87.0133 637.849C86.5913 639.122 86.586 640.497 86.998 641.794C87.8546 644.538 89.4114 649.555 92.2634 658.628C97.7317 675.988 105.767 707.098 108.895 720.898C109.05 721.592 109.353 722.251 109.786 722.835C110.218 723.418 110.77 723.913 111.407 724.287C112.044 724.662 112.752 724.908 113.485 725.011C114.219 725.113 114.963 725.069 115.67 724.882L133.372 720.227C134.082 720.038 134.738 719.709 135.301 719.262C135.863 718.815 136.319 718.259 136.641 717.629C136.962 716.999 137.142 716.309 137.168 715.601C137.195 714.894 137.067 714.185 136.795 713.519C131.208 700.029 119.632 669.745 114.239 652.592C111.496 643.795 109.877 638.821 109.008 636.031C108.545 634.63 107.635 633.392 106.408 632.493C105.18 631.594 103.698 631.08 102.172 631.024V631.024Z" stroke="#02265C" stroke-width="10" stroke-linecap="round" stroke-linejoin="round"/>
<path d="M119.876 568.046L104.505 572.249C104.269 572.312 104.051 572.422 103.863 572.57C103.675 572.718 103.522 572.902 103.413 573.11C103.294 573.313 103.22 573.538 103.193 573.771C103.167 574.004 103.189 574.242 103.259 574.469C103.433 575.006 103.477 575.57 103.386 576.118C103.296 576.667 103.074 577.184 102.737 577.631C101.896 578.797 100.743 579.904 99.3844 580.292C96.2711 581.162 93.5481 576.805 90.0404 577.163C86.1562 577.636 82.3211 578.38 78.5654 579.388C75.4014 580.253 63.2731 583.813 50.3746 593.803C46.2501 596.986 42.8388 600.926 40.3324 605.4C36.2305 612.713 36.5457 620.174 37.3865 623.281C38.0405 625.745 39.5805 628.765 39.5805 628.765C39.7505 627.583 39.9973 626.414 40.3193 625.265C41.026 622.887 42.0991 620.632 43.5037 618.571C46.3065 614.455 51.3788 610.394 55.2752 608.837C61.6335 606.373 67.8484 607.158 74.6377 610.366C79.6857 612.755 83.4057 620.499 86.1059 627.407C86.3432 628.015 86.814 628.518 87.4205 628.813C88.027 629.108 88.7226 629.171 89.363 628.99L98.9321 626.417C99.5935 626.235 100.148 625.812 100.477 625.238C100.806 624.664 100.885 623.983 100.696 623.341C98.8789 617.362 97.1371 610.26 96.8848 606.623C96.6325 602.986 97.3559 600.543 97.8219 599.432C98.7635 597.264 100.399 595.451 102.5 594.244C102.867 594.03 103.265 593.867 103.682 593.762C106.623 592.995 109.724 594.78 110.607 597.614L110.853 598.465C110.924 598.689 111.039 598.899 111.194 599.083C111.348 599.266 111.539 599.419 111.754 599.533C111.969 599.648 112.205 599.72 112.448 599.747C112.69 599.774 112.934 599.755 113.166 599.691L128.537 595.488C128.772 595.423 128.989 595.313 129.176 595.165C129.363 595.017 129.516 594.833 129.626 594.625C129.864 594.215 129.92 593.727 129.782 593.268L122.236 569.297C122.076 568.845 121.742 568.462 121.303 568.23C120.865 567.997 120.354 567.931 119.876 568.046V568.046Z" stroke="#02265C" stroke-width="10" stroke-linecap="round" stroke-linejoin="round"/>
</g>
<g clip-path="url(#clip1)">
<path d="M1239.04 260.04C1244.52 261.709 1249.08 265.61 1251.7 270.887C1254.33 276.164 1254.82 282.383 1253.05 288.178L1173.24 550.341C1171.47 556.136 1167.6 561.03 1162.48 563.947C1157.36 566.865 1151.4 567.566 1145.92 565.898L1021.96 528.156C1016.48 526.488 1011.92 522.586 1009.3 517.31C1006.67 512.033 1006.18 505.813 1007.95 500.019L1087.76 237.855C1089.53 232.061 1093.4 227.167 1098.52 224.249C1103.64 221.332 1109.6 220.63 1115.08 222.298L1239.04 260.04ZM1121.73 200.451C1110.77 197.115 1098.86 198.518 1088.61 204.353C1078.37 210.188 1070.63 219.977 1067.1 231.565L987.286 493.729C983.758 505.317 984.728 517.756 989.983 528.31C995.238 538.863 1004.35 546.667 1015.31 550.003L1139.27 587.745C1150.23 591.082 1162.14 589.678 1172.39 583.843C1182.63 578.008 1190.37 568.22 1193.9 556.632L1273.71 294.468C1277.24 282.879 1276.27 270.44 1271.02 259.887C1265.76 249.333 1256.65 241.53 1245.69 238.193L1121.73 200.451Z" fill="#02265C"/>
<path d="M1090.59 525.18C1096.07 526.849 1102.03 526.147 1107.15 523.229C1112.27 520.312 1116.14 515.418 1117.9 509.624C1119.67 503.829 1119.18 497.61 1116.56 492.333C1113.93 487.056 1109.37 483.155 1103.89 481.486C1098.42 479.818 1092.46 480.52 1087.34 483.437C1082.21 486.355 1078.35 491.249 1076.58 497.043C1074.82 502.837 1075.3 509.057 1077.93 514.334C1080.56 519.61 1085.11 523.512 1090.59 525.18Z" fill="#02265C"/>
<g clip-path="url(#clip2)">
<path d="M1134.29 400.152L1152.54 445.49L1167.73 436.988L1149.49 391.65L1134.29 400.152ZM1163.95 377.193C1161.96 376.479 1159.92 375.424 1158.52 374.018L1077.14 418.085L1070.72 402.141L1123.72 373.343L1118.35 359.911L1113.24 362.601L1108.75 351.873L1102.87 368.247L1097.86 370.973L1087.24 344.146L1092.25 341.42L1106.57 346.565L1102.33 335.929L1127.8 322.066C1129.78 320.981 1131.91 320.32 1134.07 320.121C1136.23 319.922 1138.36 320.189 1140.36 320.907C1142.36 321.625 1144.18 322.78 1145.72 324.305C1147.26 325.83 1148.48 327.695 1149.32 329.794L1134.12 338.296L1138.43 348.894L1133.35 351.658L1138.81 365.127L1151.96 357.696C1151.92 355.551 1152.48 353.036 1153.24 350.918C1154.17 348.267 1155.56 345.806 1157.32 343.678C1159.09 341.549 1161.2 339.795 1163.54 338.516C1165.87 337.238 1168.38 336.461 1170.91 336.231C1173.45 336 1175.97 336.321 1178.32 337.174C1181.33 338.254 1183.69 340.008 1185.51 342.472L1166.41 352.869L1170.97 364.203L1190.07 353.806C1190.53 357.01 1190.22 360.129 1188.92 363.736C1184.97 374.728 1173.89 380.764 1163.95 377.193Z" fill="#F3FBFF"/>
</g>
</g>
<path d="M153.721 686.191C152.174 685.311 150.24 685.86 149.4 687.418L147.649 690.666C146.808 692.227 147.381 694.203 148.927 695.084C150.202 695.81 150.822 697.313 150.644 698.778C150.617 699.009 150.595 699.243 150.575 699.473C150.446 700.943 149.535 702.257 148.141 702.655C147.332 702.885 146.65 703.435 146.247 704.183C145.844 704.931 145.752 705.816 145.992 706.643L147.034 710.241C147.274 711.068 147.825 711.771 148.568 712.193C149.31 712.616 150.182 712.724 150.991 712.494V712.494C152.387 712.098 153.861 712.734 154.757 713.918C154.898 714.104 155.042 714.287 155.189 714.469C156.124 715.617 156.403 717.217 155.711 718.502C154.871 720.06 155.443 722.037 156.99 722.917L160.215 724.754C161.762 725.634 163.695 725.085 164.535 723.526C165.228 722.242 166.696 721.636 168.139 721.842C168.368 721.873 168.598 721.9 168.823 721.926C170.272 722.08 171.58 723.028 171.994 724.452C172.234 725.28 172.786 725.982 173.528 726.405C174.27 726.827 175.142 726.936 175.952 726.706L179.472 725.706C180.282 725.476 180.963 724.926 181.367 724.178C181.77 723.43 181.862 722.545 181.622 721.718C181.209 720.291 181.809 718.803 182.957 717.91C183.138 717.772 183.317 717.627 183.494 717.481C184.607 716.549 186.176 716.292 187.451 717.018C188.998 717.898 190.932 717.349 191.772 715.791L193.524 712.541C194.364 710.982 193.791 709.006 192.245 708.125C190.969 707.399 190.35 705.896 190.526 704.43C190.555 704.2 190.579 703.967 190.599 703.737C190.724 702.265 191.637 700.952 193.029 700.556C193.431 700.442 193.804 700.249 194.13 699.987C194.455 699.724 194.725 699.399 194.925 699.028C195.125 698.658 195.25 698.249 195.294 697.827C195.338 697.404 195.299 696.976 195.18 696.566L194.138 692.968C193.898 692.141 193.346 691.439 192.604 691.016C191.862 690.593 190.99 690.485 190.18 690.715V690.715C188.784 691.111 187.311 690.476 186.414 689.294C186.275 689.107 186.129 688.923 185.983 688.74C185.048 687.592 184.768 685.992 185.461 684.707C186.301 683.149 185.729 681.172 184.182 680.292L180.959 678.457C179.412 677.576 177.479 678.125 176.638 679.684C175.946 680.969 174.478 681.574 173.033 681.371C172.806 681.338 172.578 681.31 172.349 681.286C170.902 681.13 169.594 680.182 169.18 678.758C168.94 677.93 168.388 677.228 167.646 676.806C166.904 676.383 166.032 676.275 165.222 676.505L161.702 677.504C160.892 677.735 160.211 678.284 159.807 679.032C159.404 679.78 159.312 680.665 159.552 681.493V681.493C159.965 682.919 159.364 684.408 158.217 685.3C158.036 685.44 157.857 685.583 157.68 685.729C156.564 686.66 154.996 686.917 153.723 686.193L153.721 686.191Z" stroke="#02265C" stroke-width="4"/>
<path d="M175.379 692.711C177.719 694.044 179.459 696.258 180.215 698.868C180.971 701.478 180.681 704.269 179.41 706.628C178.139 708.986 175.99 710.719 173.436 711.444C170.882 712.169 168.133 711.828 165.792 710.496C163.452 709.163 161.712 706.948 160.956 704.338C160.2 701.728 160.49 698.937 161.761 696.579C163.032 694.221 165.181 692.488 167.735 691.763C170.289 691.037 173.038 691.378 175.379 692.711V692.711Z" stroke="#02265C" stroke-width="4"/>
<path d="M272.262 586.753C272.353 585.412 271.344 584.207 270.006 584.059L267.217 583.752C265.877 583.604 264.719 584.571 264.627 585.912C264.551 587.018 263.73 587.883 262.674 588.176C262.507 588.223 262.34 588.274 262.177 588.325C261.134 588.653 259.938 588.387 259.209 587.518C258.786 587.013 258.188 586.69 257.546 586.619C256.904 586.549 256.27 586.736 255.785 587.141L253.676 588.902C253.191 589.307 252.894 589.896 252.85 590.539C252.806 591.183 253.019 591.828 253.441 592.333V592.333C254.17 593.204 254.221 594.423 253.709 595.392C253.628 595.545 253.551 595.699 253.475 595.854C253 596.841 252.002 597.494 250.899 597.372C249.561 597.225 248.402 598.192 248.31 599.533L248.119 602.329C248.027 603.67 249.037 604.876 250.375 605.024C251.478 605.145 252.373 606.007 252.707 607.082C252.761 607.252 252.819 607.422 252.875 607.588C253.246 608.653 253.03 609.845 252.195 610.543C251.71 610.948 251.413 611.537 251.369 612.181C251.325 612.824 251.538 613.47 251.961 613.975L253.799 616.17C254.222 616.675 254.82 616.998 255.462 617.069C256.105 617.14 256.738 616.952 257.223 616.547C258.059 615.849 259.271 615.848 260.256 616.402C260.41 616.49 260.567 616.575 260.725 616.658C261.726 617.176 262.417 618.208 262.342 619.314C262.25 620.655 263.26 621.861 264.598 622.008L267.388 622.316C268.726 622.463 269.885 621.496 269.976 620.155C270.052 619.049 270.873 618.184 271.929 617.89C272.096 617.845 272.263 617.796 272.426 617.744C273.47 617.412 274.665 617.68 275.392 618.549C275.601 618.799 275.856 619.007 276.142 619.162C276.427 619.316 276.738 619.414 277.056 619.449C277.375 619.484 277.694 619.456 277.996 619.366C278.298 619.276 278.578 619.127 278.818 618.926L280.927 617.166C281.412 616.761 281.709 616.172 281.753 615.528C281.797 614.885 281.584 614.239 281.162 613.734V613.734C280.433 612.864 280.382 611.644 280.892 610.675C280.974 610.524 281.052 610.369 281.128 610.213C281.603 609.227 282.601 608.574 283.705 608.695C285.043 608.842 286.201 607.875 286.293 606.535L286.484 603.74C286.576 602.399 285.566 601.193 284.228 601.046C283.125 600.924 282.23 600.062 281.894 598.987C281.841 598.817 281.785 598.648 281.727 598.481C281.357 597.417 281.573 596.224 282.408 595.526C282.893 595.121 283.19 594.532 283.234 593.888C283.278 593.245 283.065 592.6 282.642 592.094L280.804 589.899C280.381 589.394 279.783 589.071 279.141 589C278.498 588.929 277.865 589.117 277.38 589.522V589.522C276.544 590.22 275.332 590.221 274.347 589.668C274.192 589.58 274.035 589.494 273.878 589.412C272.877 588.891 272.186 587.859 272.261 586.755L272.262 586.753Z" stroke="#02265C" stroke-width="4"/>
<path d="M274.929 603.882C274.79 605.912 273.852 607.769 272.321 609.045C270.791 610.322 268.794 610.914 266.769 610.69C264.744 610.466 262.858 609.446 261.524 607.853C260.191 606.26 259.521 604.225 259.66 602.195C259.8 600.166 260.738 598.309 262.268 597.032C263.799 595.756 265.796 595.164 267.821 595.388C269.846 595.612 271.732 596.632 273.065 598.225C274.398 599.818 275.069 601.853 274.929 603.882V603.882Z" stroke="#02265C" stroke-width="4"/>
<path d="M183.353 604.228C181.41 602.398 178.416 602.469 176.664 604.387L173.012 608.384C171.257 610.304 171.412 613.341 173.355 615.17C174.957 616.679 175.342 619.057 174.583 621.085C174.465 621.406 174.352 621.733 174.244 622.054C173.555 624.107 171.783 625.65 169.625 625.704C168.371 625.734 167.194 626.268 166.353 627.189C165.512 628.109 165.076 629.34 165.14 630.612L165.422 636.139C165.487 637.411 166.048 638.619 166.98 639.497C167.913 640.375 169.141 640.852 170.395 640.822V640.822C172.556 640.771 174.478 642.224 175.373 644.247C175.514 644.565 175.66 644.881 175.811 645.195C176.776 647.182 176.634 649.572 175.189 651.153C173.437 653.071 173.591 656.108 175.535 657.937L179.587 661.754C181.53 663.583 184.525 663.512 186.277 661.595C187.722 660.013 190.059 659.69 192.083 660.517C192.404 660.646 192.729 660.77 193.047 660.89C195.096 661.645 196.67 663.483 196.785 665.672C196.85 666.944 197.41 668.152 198.343 669.03C199.275 669.908 200.504 670.385 201.757 670.355L207.208 670.226C208.462 670.195 209.639 669.661 210.48 668.741C211.321 667.821 211.757 666.59 211.693 665.318C211.581 663.126 212.962 661.22 214.932 660.368C215.242 660.237 215.551 660.096 215.858 659.952C217.793 659.031 220.158 659.243 221.76 660.751C223.703 662.581 226.697 662.51 228.449 660.592L232.104 656.593C233.856 654.675 233.701 651.639 231.758 649.809C230.156 648.3 229.771 645.922 230.528 643.892C230.649 643.573 230.764 643.249 230.872 642.928C231.556 640.87 233.33 639.329 235.486 639.278C236.107 639.263 236.716 639.125 237.278 638.87C237.84 638.615 238.344 638.25 238.76 637.794C239.177 637.338 239.498 636.8 239.706 636.213C239.915 635.625 240.005 634.998 239.973 634.368L239.691 628.84C239.626 627.568 239.065 626.361 238.133 625.483C237.2 624.605 235.972 624.128 234.718 624.157V624.157C232.557 624.209 230.635 622.756 229.738 620.735C229.601 620.417 229.452 620.099 229.302 619.785C228.338 617.798 228.48 615.407 229.924 613.826C231.677 611.908 231.522 608.872 229.579 607.042L225.529 603.228C223.586 601.399 220.591 601.47 218.839 603.387C217.395 604.969 215.057 605.292 213.03 604.467C212.711 604.337 212.39 604.213 212.067 604.094C210.02 603.337 208.446 601.499 208.332 599.31C208.266 598.038 207.706 596.831 206.773 595.952C205.841 595.074 204.613 594.598 203.359 594.627L197.908 594.756C196.654 594.787 195.477 595.321 194.636 596.241C193.795 597.161 193.359 598.392 193.423 599.664V599.664C193.535 601.856 192.154 603.762 190.184 604.614C189.873 604.747 189.564 604.886 189.258 605.03C187.32 605.948 184.956 605.737 183.356 604.231L183.353 604.228Z" stroke="#F3FBFF" stroke-width="5"/>
<path d="M212.556 621.547C215.496 624.317 217.263 628.125 217.468 632.135C217.672 636.146 216.297 640.029 213.645 642.931C210.994 645.833 207.282 647.516 203.328 647.61C199.373 647.704 195.5 646.201 192.559 643.432C189.618 640.663 187.851 636.854 187.647 632.844C187.443 628.834 188.818 624.95 191.469 622.048C194.121 619.146 197.832 617.463 201.787 617.369C205.741 617.275 209.615 618.778 212.556 621.547V621.547Z" stroke="#F3FBFF" stroke-width="5"/>
<defs>
<clipPath id="clip0">
<rect width="193.323" height="178.998" fill="white" transform="matrix(0.489236 -0.872151 0.883478 0.468473 -21 665.607)"/>
</clipPath>
<clipPath id="clip1">
<rect width="345.56" height="365.393" fill="white" transform="translate(1018.42 169) rotate(16.9328)"/>
</clipPath>
<clipPath id="clip2">
<rect width="130" height="146" fill="white" transform="translate(1095.5 287.324) rotate(19.7585)"/>
</clipPath>
</defs>
</svg>
