<svg width="1440" height="699" viewBox="0 0 1440 699" fill="none" xmlns="http://www.w3.org/2000/svg">
<path d="M1696 92.4299C1696 215.665 919.074 836.758 -296.81 612.198C-761.315 612.198 -186.079 105.116 -186.079 -18.1196C-186.079 -141.355 56.4668 -132.876 520.972 -132.876C985.477 -132.876 1696 -30.8054 1696 92.4299Z" fill="#1194FF"/>
<path d="M1738.47 371.174C1738.47 473.208 1956.58 768.512 1458.33 670.653C1238.41 670.653 802 96.1167 802 -5.91759C802 -107.952 1284.43 -5.9176 1504.35 -5.9176C1724.27 -5.9176 1738.47 269.139 1738.47 371.174Z" fill="#5AE9FE" fill-opacity="0.59"/>
<g clip-path="url(#clip0)">
<path d="M1275.04 307.651C1280.52 309.294 1285.08 313.136 1287.7 318.333C1290.33 323.529 1290.82 329.654 1289.05 335.359L1209.24 593.524C1207.47 599.23 1203.6 604.049 1198.48 606.922C1193.36 609.795 1187.4 610.486 1181.92 608.843L1057.96 571.677C1052.48 570.034 1047.92 566.192 1045.3 560.996C1042.67 555.8 1042.18 549.675 1043.95 543.969L1123.76 285.805C1125.53 280.099 1129.4 275.279 1134.52 272.407C1139.64 269.534 1145.6 268.843 1151.08 270.485L1275.04 307.651ZM1157.73 248.972C1146.77 245.686 1134.86 247.068 1124.61 252.814C1114.37 258.56 1106.63 268.199 1103.1 279.61L1023.29 537.775C1019.76 549.187 1020.73 561.436 1025.98 571.828C1031.24 582.221 1040.35 589.905 1051.31 593.191L1175.27 630.357C1186.23 633.643 1198.14 632.261 1208.39 626.515C1218.63 620.769 1226.37 611.13 1229.9 599.718L1309.71 341.554C1313.24 330.142 1312.27 317.893 1307.02 307.5C1301.76 297.108 1292.65 289.423 1281.69 286.138L1157.73 248.972Z" fill="#02265C"/>
<path d="M1126.59 568.747C1132.07 570.389 1138.03 569.698 1143.15 566.825C1148.27 563.953 1152.14 559.133 1153.9 553.427C1155.67 547.721 1155.18 541.597 1152.56 536.4C1149.93 531.204 1145.37 527.362 1139.89 525.719C1134.42 524.076 1128.46 524.767 1123.34 527.64C1118.21 530.513 1114.35 535.333 1112.58 541.039C1110.82 546.744 1111.3 552.869 1113.93 558.065C1116.56 563.262 1121.11 567.104 1126.59 568.747Z" fill="#02265C"/>
<g clip-path="url(#clip1)">
<path d="M1170.29 445.626L1188.54 490.272L1203.73 481.899L1185.49 437.253L1170.29 445.626V445.626ZM1199.95 423.017C1197.96 422.314 1195.92 421.275 1194.52 419.89L1113.14 463.285L1106.72 447.584L1159.72 419.226L1154.35 405.999L1149.24 408.647L1144.75 398.083L1138.87 414.207L1133.86 416.892L1123.24 390.474L1128.25 387.789L1142.57 392.856L1138.33 382.383L1163.8 368.731C1165.78 367.662 1167.91 367.011 1170.07 366.815C1172.23 366.619 1174.36 366.883 1176.36 367.59C1178.36 368.297 1180.18 369.434 1181.72 370.936C1183.26 372.438 1184.48 374.274 1185.32 376.341L1170.12 384.714L1174.43 395.149L1169.35 397.872L1174.81 411.135L1187.96 403.818C1187.92 401.705 1188.48 399.229 1189.24 397.143C1190.17 394.533 1191.56 392.109 1193.32 390.013C1195.09 387.917 1197.2 386.189 1199.54 384.93C1201.87 383.671 1204.38 382.906 1206.91 382.68C1209.45 382.453 1211.97 382.768 1214.32 383.609C1217.33 384.672 1219.69 386.399 1221.51 388.825L1202.41 399.064L1206.97 410.226L1226.07 399.987C1226.53 403.142 1226.22 406.213 1224.92 409.765C1220.97 420.59 1209.89 426.533 1199.95 423.017Z" fill="#F3FBFF"/>
</g>
</g>
<path d="M85.4249 631.583C86.7688 633.889 89.6602 634.671 91.8846 633.329L96.5206 630.534C98.7482 629.19 99.4616 626.235 98.1177 623.929C97.0096 622.027 97.3152 619.638 98.6192 617.909C98.8237 617.634 99.0244 617.353 99.2187 617.076C100.463 615.303 102.599 614.326 104.684 614.887C105.895 615.214 107.175 615.036 108.243 614.392C109.31 613.748 110.078 612.691 110.377 611.454L111.676 606.073C111.974 604.836 111.779 603.519 111.135 602.412C110.49 601.305 109.447 600.499 108.236 600.172V600.172C106.149 599.608 104.719 597.669 104.436 595.475C104.391 595.13 104.34 594.785 104.284 594.442C103.923 592.263 104.738 590.011 106.572 588.905C108.796 587.563 109.51 584.608 108.166 582.302L105.363 577.492C104.019 575.186 101.128 574.405 98.9034 575.746C97.0692 576.852 94.7361 576.499 93.0301 575.131C92.7592 574.917 92.482 574.706 92.2118 574.5C90.4608 573.195 89.4732 570.985 89.985 568.854C90.2834 567.616 90.0887 566.299 89.4437 565.192C88.7988 564.086 87.7564 563.28 86.5456 562.952L81.2822 561.529C80.0712 561.202 78.7913 561.38 77.7239 562.024C76.6564 562.668 75.8887 563.725 75.5895 564.962C75.0745 567.096 73.2096 568.532 71.0786 568.79C70.7443 568.827 70.4075 568.874 70.0726 568.925C67.9558 569.259 65.7483 568.385 64.6401 566.484C63.2962 564.178 60.4049 563.396 58.1805 564.738L53.5413 567.536C51.3169 568.877 50.6034 571.833 51.9474 574.139C53.0555 576.04 52.7498 578.43 51.4478 580.162C51.2414 580.433 51.0387 580.711 50.8444 580.988C49.6042 582.767 47.4658 583.741 45.3838 583.179C44.7839 583.016 44.1606 582.976 43.5496 583.061C42.9386 583.146 42.3519 583.354 41.823 583.673C41.294 583.992 40.8332 584.416 40.4669 584.92C40.1006 585.425 39.8359 586 39.688 586.614L38.3892 591.994C38.0909 593.232 38.2856 594.549 38.9305 595.655C39.5754 596.762 40.6179 597.568 41.8286 597.896V597.896C43.9157 598.46 45.3456 600.398 45.6325 602.59C45.6742 602.934 45.7261 603.281 45.7812 603.626C46.1418 605.804 45.3271 608.056 43.493 609.162C41.2686 610.504 40.5552 613.459 41.8991 615.766L44.7001 620.572C46.044 622.878 48.9354 623.659 51.1598 622.318C52.9939 621.212 55.327 621.565 57.0362 622.931C57.3054 623.146 57.5782 623.357 57.8545 623.562C59.6023 624.869 60.5899 627.079 60.0781 629.21C59.7798 630.448 59.9745 631.765 60.6194 632.872C61.2643 633.978 62.3068 634.784 63.5175 635.112L68.7809 636.535C69.9919 636.862 71.2718 636.684 72.3393 636.04C73.4067 635.396 74.1744 634.339 74.4737 633.102V633.102C74.9886 630.968 76.8535 629.532 78.9845 629.274C79.3207 629.235 79.6561 629.19 79.9906 629.139C82.1093 628.808 84.3168 629.682 85.423 631.58L85.4249 631.583Z" stroke="#F3FBFF" stroke-width="5"/>
<path d="M62.339 606.688C60.3052 603.198 59.6919 599.045 60.6341 595.141C61.5764 591.238 63.9969 587.905 67.3633 585.875C70.7296 583.845 74.766 583.284 78.5845 584.316C82.403 585.348 85.6908 587.889 87.7246 591.379C89.7585 594.869 90.3717 599.022 89.4295 602.926C88.4873 606.829 86.0667 610.162 82.7004 612.192C79.334 614.223 75.2976 614.783 71.4791 613.751C67.6606 612.719 64.3728 610.178 62.339 606.688V606.688Z" stroke="#F3FBFF" stroke-width="5"/>
<path d="M121.012 559.688C120.544 560.948 121.17 562.391 122.411 562.912L124.998 563.998C126.241 564.52 127.626 563.921 128.094 562.661C128.481 561.623 129.513 561.026 130.609 561.045C130.783 561.047 130.957 561.046 131.128 561.043C132.222 561.024 133.293 561.619 133.745 562.659C134.007 563.263 134.489 563.743 135.085 563.993C135.681 564.243 136.341 564.243 136.921 563.992L139.443 562.903C140.023 562.652 140.475 562.172 140.7 561.567C140.925 560.963 140.904 560.283 140.642 559.679V559.679C140.19 558.638 140.488 557.453 141.254 556.67C141.374 556.546 141.493 556.421 141.609 556.293C142.345 555.482 143.487 555.139 144.511 555.569C145.752 556.09 147.137 555.492 147.606 554.232L148.583 551.605C149.051 550.345 148.425 548.902 147.184 548.381C146.161 547.951 145.547 546.871 145.532 545.745C145.529 545.567 145.522 545.387 145.516 545.212C145.461 544.086 146.007 543.004 147.005 542.571C147.585 542.321 148.038 541.84 148.262 541.236C148.487 540.631 148.466 539.952 148.204 539.348L147.065 536.721C146.802 536.117 146.32 535.637 145.725 535.387C145.129 535.137 144.469 535.137 143.888 535.387C142.889 535.819 141.726 535.477 140.939 534.666C140.817 534.538 140.689 534.412 140.562 534.288C139.749 533.506 139.379 532.32 139.766 531.282C140.234 530.022 139.608 528.579 138.367 528.058L135.779 526.971C134.537 526.45 133.152 527.049 132.684 528.308C132.297 529.347 131.265 529.944 130.168 529.926C129.995 529.922 129.822 529.922 129.651 529.925C128.555 529.947 127.486 529.351 127.035 528.312C126.905 528.012 126.72 527.74 126.49 527.511C126.26 527.282 125.989 527.1 125.694 526.976C125.399 526.852 125.085 526.789 124.77 526.789C124.454 526.789 124.144 526.853 123.857 526.977L121.335 528.067C120.755 528.318 120.303 528.798 120.078 529.403C119.853 530.007 119.874 530.686 120.136 531.291V531.291C120.588 532.332 120.291 533.516 119.526 534.301C119.405 534.422 119.286 534.549 119.169 534.677C118.434 535.488 117.291 535.83 116.267 535.401C115.026 534.88 113.641 535.478 113.172 536.738L112.196 539.363C111.727 540.623 112.353 542.066 113.594 542.587C114.618 543.017 115.231 544.097 115.248 545.224C115.251 545.402 115.256 545.579 115.265 545.757C115.317 546.882 114.772 547.964 113.773 548.396C113.193 548.647 112.741 549.128 112.516 549.732C112.292 550.337 112.312 551.016 112.574 551.62L113.714 554.247C113.976 554.851 114.458 555.331 115.054 555.581C115.65 555.831 116.31 555.831 116.89 555.581V555.581C117.89 555.149 119.053 555.491 119.84 556.302C119.964 556.43 120.089 556.556 120.217 556.68C121.029 557.464 121.399 558.649 121.013 559.686L121.012 559.688Z" stroke="#02265C" stroke-width="4"/>
<path d="M123.316 542.506C124.025 540.6 125.452 539.085 127.282 538.296C129.112 537.506 131.195 537.505 133.073 538.295C134.951 539.084 136.47 540.598 137.296 542.504C138.123 544.41 138.188 546.551 137.478 548.457C136.769 550.363 135.342 551.878 133.512 552.668C131.682 553.458 129.599 553.458 127.721 552.669C125.843 551.88 124.324 550.366 123.498 548.46C122.672 546.554 122.606 544.412 123.316 542.506V542.506Z" stroke="#02265C" stroke-width="4"/>
<path d="M137.187 682.061C138.42 683.344 140.43 683.367 141.678 682.111L144.278 679.493C145.528 678.236 145.54 676.178 144.307 674.895C143.29 673.837 143.123 672.219 143.709 670.866C143.801 670.651 143.889 670.433 143.973 670.218C144.514 668.846 145.76 667.844 147.209 667.858C148.051 667.867 148.86 667.533 149.459 666.931C150.058 666.328 150.397 665.505 150.403 664.644L150.424 660.898C150.429 660.037 150.099 659.207 149.508 658.591C148.916 657.975 148.111 657.624 147.269 657.614V657.614C145.818 657.598 144.585 656.57 144.062 655.181C143.98 654.962 143.894 654.745 143.804 654.53C143.234 653.163 143.42 651.55 144.449 650.514C145.697 649.258 145.708 647.201 144.475 645.918L141.904 643.241C140.671 641.958 138.661 641.936 137.413 643.192C136.384 644.227 134.805 644.391 133.479 643.784C133.269 643.689 133.056 643.598 132.847 643.509C131.502 642.951 130.517 641.67 130.524 640.187C130.528 639.325 130.199 638.495 129.607 637.88C129.015 637.264 128.21 636.913 127.368 636.903L123.709 636.863C122.867 636.854 122.058 637.187 121.459 637.79C120.86 638.392 120.521 639.215 120.516 640.077C120.507 641.562 119.509 642.819 118.155 643.349C117.943 643.43 117.73 643.518 117.519 643.608C116.186 644.186 114.609 643.987 113.592 642.929C112.359 641.646 110.349 641.623 109.101 642.879L106.499 645.499C105.251 646.755 105.239 648.812 106.472 650.095C107.489 651.153 107.656 652.771 107.072 654.126C106.978 654.339 106.889 654.555 106.804 654.77C106.267 656.146 105.019 657.146 103.572 657.13C103.154 657.126 102.741 657.205 102.355 657.364C101.968 657.523 101.617 657.759 101.32 658.058C101.023 658.356 100.787 658.712 100.625 659.105C100.463 659.497 100.379 659.919 100.376 660.346L100.355 664.092C100.35 664.953 100.68 665.783 101.271 666.399C101.863 667.015 102.668 667.366 103.51 667.376V667.376C104.961 667.392 106.194 668.42 106.719 669.807C106.799 670.026 106.886 670.244 106.975 670.46C107.546 671.827 107.359 673.44 106.33 674.476C105.083 675.732 105.071 677.789 106.304 679.072L108.873 681.747C110.106 683.03 112.117 683.052 113.364 681.796C114.393 680.761 115.973 680.597 117.3 681.202C117.509 681.298 117.72 681.39 117.932 681.477C119.275 682.037 120.26 683.318 120.254 684.801C120.249 685.663 120.579 686.493 121.17 687.109C121.762 687.724 122.567 688.076 123.409 688.085L127.068 688.126C127.91 688.135 128.72 687.801 129.318 687.198C129.917 686.596 130.256 685.773 130.262 684.912V684.912C130.27 683.427 131.269 682.17 132.622 681.639C132.836 681.557 133.048 681.47 133.259 681.38C134.593 680.804 136.17 681.003 137.185 682.059L137.187 682.061Z" stroke="#02265C" stroke-width="4"/>
<path d="M118.269 669.662C116.403 667.72 115.364 665.103 115.38 662.386C115.396 659.669 116.465 657.075 118.354 655.174C120.242 653.273 122.794 652.222 125.449 652.251C128.104 652.281 130.644 653.388 132.51 655.33C134.376 657.272 135.415 659.89 135.399 662.607C135.383 665.324 134.314 667.918 132.425 669.819C130.537 671.719 127.985 672.771 125.33 672.741C122.675 672.712 120.135 671.605 118.269 669.662V669.662Z" stroke="#02265C" stroke-width="4"/>
<defs>
<clipPath id="clip0">
<rect width="345.116" height="360.295" fill="white" transform="matrix(0.957878 0.287176 -0.295372 0.955382 1054.42 218)"/>
</clipPath>
<clipPath id="clip1">
<rect width="129.829" height="143.968" fill="white" transform="matrix(0.942366 0.333337 -0.342828 0.939853 1131.5 334.519)"/>
</clipPath>
</defs>
</svg>
