<svg width="34" height="34" viewBox="0 0 34 34" fill="none" xmlns="http://www.w3.org/2000/svg">
<path d="M22.219 0H11.781C2.261 0 0 2.261 0 11.781V22.219C0 31.739 2.261 34 11.781 34H22.219C31.739 34 34 31.739 34 22.219V11.781C34 2.261 31.739 0 22.219 0ZM27.455 24.259H24.973C24.038 24.259 23.749 23.494 22.1 21.811C20.604 20.4 19.958 20.196 19.601 20.196C19.108 20.196 18.955 20.332 18.955 21.046V23.273C18.955 23.868 18.768 24.242 17.187 24.242C14.569 24.242 11.662 22.644 9.622 19.703C6.545 15.385 5.712 12.121 5.712 11.475C5.712 11.118 5.831 10.778 6.545 10.778H9.044C9.673 10.778 9.911 11.05 10.149 11.73C11.373 15.3 13.413 18.36 14.246 18.36C14.569 18.36 14.705 18.207 14.705 17.425V13.77C14.62 12.104 13.719 11.951 13.719 11.356C13.719 11.05 13.957 10.778 14.348 10.778H18.241C18.768 10.778 18.955 11.05 18.955 11.696V16.609C18.955 17.136 19.176 17.323 19.346 17.323C19.652 17.323 19.924 17.136 20.485 16.558C22.27 14.569 23.545 11.492 23.545 11.492C23.715 11.135 23.987 10.795 24.65 10.795H27.081C27.829 10.795 27.999 11.186 27.829 11.713C27.523 13.158 24.497 17.425 24.531 17.425C24.259 17.85 24.157 18.037 24.531 18.53C24.786 18.887 25.653 19.635 26.231 20.298C27.285 21.505 28.101 22.508 28.322 23.205C28.509 23.902 28.169 24.259 27.455 24.259Z" fill="#02265C"/>
</svg>
